<?xml version="1.0" encoding="UTF-8"?>
<svg height="128px" viewBox="0 0 128 128" width="128px" xmlns="http://www.w3.org/2000/svg" xmlns:xlink="http://www.w3.org/1999/xlink">
    <filter id="a" height="100%" width="100%" x="0%" y="0%">
        <feColorMatrix color-interpolation-filters="sRGB" values="0 0 0 0 1 0 0 0 0 1 0 0 0 0 1 0 0 0 1 0"/>
    </filter>
    <linearGradient id="b" gradientUnits="userSpaceOnUse" x1="54.5" x2="79.5" y1="98.000005" y2="98.000005">
        <stop offset="0" stop-color="#e01b24"/>
        <stop offset="1" stop-color="#a51d2d"/>
    </linearGradient>
    <linearGradient id="c" gradientUnits="userSpaceOnUse" x1="54.5" x2="79.5" y1="97" y2="97">
        <stop offset="0" stop-color="#f66151"/>
        <stop offset="1" stop-color="#e01b24"/>
    </linearGradient>
    <linearGradient id="d" gradientUnits="userSpaceOnUse" x1="29.500002" x2="48.61237" y1="59.056061" y2="59.056061">
        <stop offset="0" stop-color="#3584e4"/>
        <stop offset="1" stop-color="#1a5fb4"/>
    </linearGradient>
    <linearGradient id="e" gradientUnits="userSpaceOnUse" x1="29.5" x2="48.612366" y1="58.056061" y2="58.056061">
        <stop offset="0" stop-color="#99c1f1"/>
        <stop offset="1" stop-color="#3584e4"/>
    </linearGradient>
    <linearGradient id="f" gradientUnits="userSpaceOnUse">
        <stop offset="0" stop-color="#9141ac"/>
        <stop offset="1" stop-color="#613583"/>
    </linearGradient>
    <linearGradient id="g" x1="84.5" x2="103.61216" xlink:href="#f" y1="59.056183" y2="59.056183"/>
    <linearGradient id="h" gradientUnits="userSpaceOnUse">
        <stop offset="0" stop-color="#dc8add"/>
        <stop offset="1" stop-color="#9141ac"/>
    </linearGradient>
    <linearGradient id="i" x1="84.5" x2="103.61216" xlink:href="#h" y1="58.056183" y2="58.056183"/>
    <linearGradient id="j" gradientUnits="userSpaceOnUse" x1="65.49989601298" x2="65.49989601298" y1="6.32358027887" y2="51.32335282899">
        <stop offset="0" stop-color="#3584e4"/>
        <stop offset="1" stop-color="#0a274d"/>
    </linearGradient>
    <mask id="k">
        <g filter="url(#a)">
            <rect fill-opacity="0.4" height="153.6" width="153.6" x="-12.8" y="-12.8"/>
        </g>
    </mask>
    <linearGradient id="l" gradientTransform="matrix(-0.0106801 2.680171 2.680171 0.0106801 17.078279 94.144303)" gradientUnits="userSpaceOnUse" x1="6" x2="6.444547" y1="6.500353" y2="6.500353">
        <stop offset="0"/>
        <stop offset="1" stop-color="#4d4d4d" stop-opacity="0"/>
    </linearGradient>
    <clipPath id="m">
        <rect height="152" width="192"/>
    </clipPath>
    <linearGradient id="n" gradientUnits="userSpaceOnUse">
        <stop offset="0" stop-color="#deddda"/>
        <stop offset="1" stop-color="#c0bfbc"/>
    </linearGradient>
    <linearGradient id="o" x1="21.65323597857" x2="48.4551723716" xlink:href="#n" y1="91.58606737805" y2="91.58606737805"/>
    <mask id="p">
        <g filter="url(#a)">
            <rect fill-opacity="0.05" height="153.6" width="153.6" x="-12.8" y="-12.8"/>
        </g>
    </mask>
    <clipPath id="q">
        <rect height="152" width="192"/>
    </clipPath>
    <linearGradient id="r" x1="24.48034134997" x2="39.93481145168" xlink:href="#n" y1="98.00583167334" y2="76.10248621342"/>
    <linearGradient id="s" gradientUnits="userSpaceOnUse" x1="27.49983623112" x2="30.16357466831" y1="91.44039335938" y2="91.44039335938">
        <stop offset="0" stop-color="#ffffff"/>
        <stop offset="1" stop-color="#f6f5f4"/>
    </linearGradient>
    <linearGradient id="t" x1="106.91932428178" x2="106.91932428178" xlink:href="#f" y1="79.77870428549" y2="107.61736471451"/>
    <mask id="u">
        <g filter="url(#a)">
            <rect fill-opacity="0.5" height="153.6" width="153.6" x="-12.8" y="-12.8"/>
        </g>
    </mask>
    <linearGradient id="v" x1="114.91932428178" x2="114.91932428178" xlink:href="#f" y1="95.77870428549" y2="123.61736471451"/>
    <clipPath id="w">
        <rect height="152" width="192"/>
    </clipPath>
    <linearGradient id="x" x1="49.24962209557" x2="49.24962209557" xlink:href="#f" y1="161.00530718812" y2="212.59223081188"/>
    <linearGradient id="y" gradientUnits="userSpaceOnUse" x1="106.91935203248" x2="106.91935203248" y1="79.38273756975" y2="107.22141252262">
        <stop offset="0" stop-color="#dc8add"/>
        <stop offset="1" stop-color="#c061cb"/>
    </linearGradient>
    <mask id="z">
        <g filter="url(#a)">
            <rect fill-opacity="0.5" height="153.6" width="153.6" x="-12.8" y="-12.8"/>
        </g>
    </mask>
    <linearGradient id="A" gradientUnits="userSpaceOnUse" x1="122.54589346754" x2="122.54589346754" y1="89.63568722696" y2="102.08368107864">
        <stop offset="0" stop-color="#c061cb"/>
        <stop offset="1" stop-color="#3d3846"/>
    </linearGradient>
    <clipPath id="B">
        <rect height="152" width="192"/>
    </clipPath>
    <linearGradient id="C" x1="108.84502090688" x2="120.79169239707" xlink:href="#h" y1="79.64034509866" y2="79.64034509866"/>
    <g fill-rule="evenodd">
        <path d="m 158.679688 5.910156 h 0.003906 m 0 0 c -161.417969 -21.21875 -161.417969 -21.21875 0 0 c 8.722656 1.148438 8.722656 1.148438 0 0 z m 0 0"/>
        <path d="m 71.308594 89.5 c -0.550782 -0.007812 -1.089844 0.207031 -1.492188 0.597656 c -0.828125 0.820313 -0.84375 2.167969 -0.042968 3.011719 l 2.664062 2.765625 h -15.839844 c -1.15625 0 -2.097656 0.953125 -2.097656 2.125 c 0 1.167969 0.941406 2.125 2.097656 2.125 h 15.839844 l -2.664062 2.761719 c -0.800782 0.847656 -0.785157 2.191406 0.042968 3.015625 c 0.835938 0.8125 2.164063 0.796875 2.964844 -0.042969 l 6.121094 -6.375 c 0.796875 -0.828125 0.796875 -2.140625 0 -2.96875 l -6.121094 -6.375 c -0.382812 -0.398437 -0.917969 -0.632813 -1.472656 -0.640625 z m 0 0" fill="url(#b)"/>
        <path d="m 71.308594 88.5 c -0.550782 -0.007812 -1.089844 0.207031 -1.492188 0.597656 c -0.828125 0.820313 -0.84375 2.167969 -0.042968 3.011719 l 2.664062 2.765625 h -15.839844 c -1.15625 0 -2.097656 0.953125 -2.097656 2.125 c 0 1.167969 0.941406 2.125 2.097656 2.125 h 15.839844 l -2.664062 2.761719 c -0.800782 0.847656 -0.785157 2.191406 0.042968 3.015625 c 0.835938 0.8125 2.164063 0.796875 2.964844 -0.042969 l 6.121094 -6.375 c 0.796875 -0.828125 0.796875 -2.140625 0 -2.96875 l -6.121094 -6.375 c -0.382812 -0.398437 -0.917969 -0.632813 -1.472656 -0.640625 z m 0 0" fill="url(#c)"/>
        <path d="m 42.113281 68.019531 c 0.390625 -0.382812 0.621094 -0.917969 0.628907 -1.476562 c 0.003906 -1.164063 -0.933594 -2.128907 -2.101563 -2.160157 l -3.835937 -0.070312 l 11.199218 -11.199219 c 0.816406 -0.816406 0.808594 -2.160156 -0.019531 -2.988281 c -0.824219 -0.828125 -2.167969 -0.835938 -2.984375 -0.019531 l -11.199219 11.203125 l -0.074219 -3.839844 c -0.027343 -1.164062 -0.992187 -2.105469 -2.15625 -2.101562 c -1.167968 0.019531 -2.09375 0.96875 -2.070312 2.128906 l 0.179688 8.835937 c 0.023437 1.148438 0.953124 2.074219 2.101562 2.101563 l 8.835938 0.179687 c 0.554687 0.007813 1.09375 -0.203125 1.496093 -0.59375 z m 0 0" fill="url(#d)"/>
        <path d="m 42.113281 67.019531 c 0.390625 -0.382812 0.621094 -0.917969 0.628907 -1.476562 c 0.003906 -1.164063 -0.933594 -2.128907 -2.101563 -2.160157 l -3.835937 -0.070312 l 11.199218 -11.199219 c 0.816406 -0.816406 0.808594 -2.160156 -0.019531 -2.988281 c -0.824219 -0.828125 -2.167969 -0.835938 -2.984375 -0.019531 l -11.199219 11.203125 l -0.074219 -3.839844 c -0.027343 -1.164062 -0.992187 -2.105469 -2.15625 -2.101562 c -1.167968 0.019531 -2.09375 0.96875 -2.070312 2.128906 l 0.179688 8.835937 c 0.023437 1.148438 0.953124 2.074219 2.101562 2.101563 l 8.835938 0.179687 c 0.554687 0.007813 1.09375 -0.203125 1.496093 -0.59375 z m 0 0" fill="url(#e)"/>
        <path d="m 85.089844 62.113281 c 0.382812 0.390625 0.917968 0.621094 1.480468 0.628907 c 1.164063 0.003906 2.125 -0.933594 2.15625 -2.101563 l 0.074219 -3.835937 l 11.199219 11.199218 c 0.816406 0.816406 2.160156 0.808594 2.984375 -0.019531 c 0.828125 -0.824219 0.835937 -2.167969 0.019531 -2.984375 l -11.199218 -11.199219 l 3.835937 -0.074219 c 1.167969 -0.027343 2.105469 -0.992187 2.101563 -2.15625 c -0.015626 -1.167968 -0.964844 -2.09375 -2.125 -2.070312 l -8.835938 0.179688 c -1.148438 0.023437 -2.078125 0.953124 -2.101562 2.101562 l -0.179688 8.835938 c -0.007812 0.554687 0.203125 1.09375 0.589844 1.496093 z m 0 0" fill="url(#g)"/>
        <path d="m 85.089844 61.113281 c 0.382812 0.390625 0.917968 0.621094 1.480468 0.628907 c 1.164063 0.003906 2.125 -0.933594 2.15625 -2.101563 l 0.074219 -3.835937 l 11.199219 11.199218 c 0.816406 0.816406 2.160156 0.808594 2.984375 -0.019531 c 0.828125 -0.824219 0.835937 -2.167969 0.019531 -2.984375 l -11.199218 -11.199219 l 3.835937 -0.074219 c 1.167969 -0.027343 2.105469 -0.992187 2.101563 -2.15625 c -0.015626 -1.167968 -0.964844 -2.09375 -2.125 -2.070312 l -8.835938 0.179688 c -1.148438 0.023437 -2.078125 0.953124 -2.101562 2.101562 l -0.179688 8.835938 c -0.007812 0.554687 0.203125 1.09375 0.589844 1.496093 z m 0 0" fill="url(#i)"/>
    </g>
    <path d="m 54.398438 11.949219 c -0.910157 0 -1.761719 0.4375 -2.28125 1.179687 l -0.097657 0.148438 c -0.007812 0.007812 -0.015625 0.023437 -0.023437 0.03125 l 36 15.65625 v 0.019531 c 0.027344 -0.542969 -0.101563 -1.113281 -0.390625 -1.601563 l -8.382813 -14.058593 c -0.503906 -0.859375 -1.425781 -1.375 -2.414062 -1.375 z m 0 0" fill="url(#j)"/>
    <path d="m 52.003906 13.300781 l -8.59375 14.0625 c -0.546875 0.898438 -0.546875 2.019531 0 2.921875 l 8.621094 14.109375 l 35.964844 -15.410156 v -0.023437 z m 0 0" fill="url(#j)"/>
    <path d="m 87.996094 28.964844 l -35.992188 15.382812 c 0.503906 0.84375 1.414063 1.347656 2.394532 1.347656 h 22.410156 c 0.988281 0 1.910156 -0.515624 2.414062 -1.371093 l 8.382813 -14.0625 c 0.238281 -0.402344 0.371093 -0.847657 0.390625 -1.296875 z m 0 0" fill="url(#j)"/>
    <path d="m 54.398438 11.5 c -0.910157 0 -1.761719 0.4375 -2.28125 1.179688 l -0.097657 0.148437 c -0.007812 0.007813 -0.015625 0.023437 -0.023437 0.03125 l 36 15.65625 v 0.019531 c 0.027344 -0.542968 -0.101563 -1.113281 -0.390625 -1.601562 l -8.382813 -14.0625 c -0.503906 -0.855469 -1.425781 -1.371094 -2.414062 -1.371094 z m 0 0" fill="#99c1f1"/>
    <path d="m 52.003906 12.851562 l -8.59375 14.0625 c -0.546875 0.898438 -0.546875 2.019532 0 2.921876 l 8.621094 14.109374 l 35.964844 -15.410156 v -0.023437 z m 0 0" fill="#3584e4"/>
    <path d="m 87.996094 28.515625 l -35.992188 15.378906 c 0.503906 0.847657 1.414063 1.351563 2.394532 1.351563 h 22.410156 c 0.988281 0 1.910156 -0.515625 2.414062 -1.371094 l 8.382813 -14.0625 c 0.238281 -0.402344 0.371093 -0.847656 0.390625 -1.296875 z m 0 0" fill="#1a5fb4"/>
    <g mask="url(#k)">
        <g clip-path="url(#m)" transform="matrix(1 0 0 1 -8 -16)">
            <path d="m 31.753906 110.285156 l -0.664062 1.011719 l 6.304687 0.21875 l 0.886719 -1.277344 z m 0 0" fill="url(#l)"/>
        </g>
    </g>
    <path d="m 21.652344 89.460938 v 5.359374 h 24.121094 c 0.507812 0 0.980468 -0.136718 1.382812 -0.378906 c 0.78125 -0.46875 1.300781 -1.320312 1.300781 -2.300781 v -2.679687 z m 0 0" fill="#77767b"/>
    <path d="m 21.652344 88.90625 v 5.359375 h 24.121094 c 1.488281 0 2.683593 -1.195313 2.683593 -2.679687 v -2.679688 z m 0 0" fill="url(#o)"/>
    <path d="m 13.078125 77.667969 c -4.738281 0 -8.578125 3.839843 -8.578125 8.578125 c 0 4.734375 3.839844 8.574218 8.578125 8.574218 h 8.574219 v -8.574218 c 0 -4.738282 -3.839844 -8.578125 -8.574219 -8.578125 z m 0 4.289062 c 2.367187 0 4.285156 1.917969 4.285156 4.289063 c 0 2.367187 -1.917969 4.285156 -4.285156 4.285156 c -2.371094 0 -4.289063 -1.917969 -4.289063 -4.285156 c 0 -2.371094 1.917969 -4.289063 4.289063 -4.289063 z m 0 0" fill="#a51d2d"/>
    <g mask="url(#p)">
        <g clip-path="url(#q)" transform="matrix(1 0 0 1 -8 -16)">
            <path d="m 35.925781 104.90625 h -0.90625 l -4.027343 5.914062 h 0.910156 z m 0 0"/>
        </g>
    </g>
    <path d="m 27.117188 99.792969 l -4.4375 -3.007813 l 1.503906 -2.21875 l 3.804687 -5.617187 l 8.222657 -12.132813 c 0.835937 -1.226562 2.496093 -1.546875 3.722656 -0.714844 l 2.21875 1.503907 l -1.503906 2.21875 l -8.222657 12.132812 l -3.804687 5.617188 z m 0 0" fill="#77767b"/>
    <path d="m 26.699219 99.507812 l -2.21875 -1.503906 l -2.21875 -1.5 l 1.503906 -2.21875 l 3.804687 -5.617187 l 8.226563 -12.132813 c 0.832031 -1.230468 2.492187 -1.546875 3.722656 -0.714844 l 2.21875 1.503907 l -1.503906 2.21875 l -8.226563 12.132812 l -3.804687 5.613281 z m 0 0" fill="url(#r)"/>
    <path d="m 13.078125 77.113281 c -4.738281 0 -8.578125 3.839844 -8.578125 8.578125 c 0 4.734375 3.839844 8.574219 8.578125 8.574219 h 8.574219 v -8.574219 c 0 -4.738281 -3.839844 -8.578125 -8.574219 -8.578125 z m 0 4.289063 c 2.367187 0 4.285156 1.917968 4.285156 4.289062 c 0 2.367188 -1.917969 4.285156 -4.285156 4.285156 c -2.371094 0 -4.289063 -1.917968 -4.289063 -4.285156 c 0 -2.371094 1.917969 -4.289062 4.289063 -4.289062 z m 0 0" fill="#ed333b"/>
    <path d="m 32.160156 113.136719 c -2.664062 3.933593 -8.011718 4.960937 -11.941406 2.292969 c -3.933594 -2.664063 -4.960938 -8.011719 -2.292969 -11.941407 l 4.824219 -7.121093 l 3.457031 2.34375 l 1.289063 0.875 l 2.371094 1.609374 c 3.933593 2.664063 4.960937 8.011719 2.292968 11.941407 z m -3.558594 -2.410157 c 1.332032 -1.96875 0.820313 -4.640624 -1.144531 -5.972656 c -1.96875 -1.332031 -4.640625 -0.820312 -5.972656 1.144532 c -1.332031 1.96875 -0.820313 4.640624 1.144531 5.972656 c 1.96875 1.332031 4.640625 0.820312 5.972656 -1.144532 z m 0 0" fill="#a51d2d"/>
    <path d="m 32.160156 112.550781 c -2.664062 3.933594 -8.011718 4.957031 -11.941406 2.292969 c -3.933594 -2.664062 -4.960938 -8.011719 -2.292969 -11.941406 l 4.824219 -7.121094 l 3.457031 2.34375 l 1.289063 0.875 l 2.371094 1.609375 c 3.933593 2.664063 4.960937 8.011719 2.292968 11.941406 z m -3.558594 -2.410156 c 1.332032 -1.96875 0.820313 -4.640625 -1.144531 -5.972656 c -1.96875 -1.332031 -4.640625 -0.820313 -5.972656 1.144531 c -1.332031 1.96875 -0.820313 4.640625 1.144531 5.972656 c 1.96875 1.332032 4.640625 0.820313 5.972656 -1.144531 z m 0 0" fill="#ed333b"/>
    <path d="m 30.164062 91.730469 c 0 0.726562 -0.597656 1.316406 -1.332031 1.316406 s -1.332031 -0.589844 -1.332031 -1.316406 c 0 -0.722657 0.597656 -1.3125 1.332031 -1.3125 s 1.332031 0.589843 1.332031 1.3125 z m 0 0" fill="#deddda"/>
    <path d="m 30.164062 91.601562 c 0 0.726563 -0.597656 1.3125 -1.332031 1.3125 s -1.332031 -0.585937 -1.332031 -1.3125 c 0 -0.726562 0.597656 -1.3125 1.332031 -1.3125 s 1.332031 0.585938 1.332031 1.3125 z m 0 0" fill="#f6f5f4"/>
    <path d="m 30.164062 91.441406 c 0 0.722656 -0.597656 1.3125 -1.332031 1.3125 s -1.332031 -0.589844 -1.332031 -1.3125 c 0 -0.726562 0.597656 -1.316406 1.332031 -1.316406 s 1.332031 0.589844 1.332031 1.316406 z m 0 0" fill="url(#s)"/>
    <path d="m 95.558594 73.894531 c -0.046875 0 -0.089844 0.003907 -0.132813 0.003907 c -0.042969 0.003906 -0.085937 0.007812 -0.128906 0.011718 s -0.085937 0.007813 -0.128906 0.015625 c -0.042969 0.007813 -0.085938 0.011719 -0.128907 0.023438 c -0.082031 0.015625 -0.164062 0.035156 -0.242187 0.0625 c -0.082031 0.023437 -0.160156 0.050781 -0.238281 0.085937 c -0.074219 0.03125 -0.148438 0.066406 -0.222656 0.105469 c -0.070313 0.039063 -0.140626 0.082031 -0.210938 0.128906 c -0.066406 0.046875 -0.132812 0.09375 -0.195312 0.148438 c -0.0625 0.050781 -0.125 0.105469 -0.183594 0.164062 c -0.054688 0.058594 -0.113282 0.117188 -0.164063 0.179688 s -0.101562 0.128906 -0.144531 0.199219 c -0.046875 0.066406 -0.089844 0.136718 -0.128906 0.210937 c -0.039063 0.070313 -0.074219 0.144531 -0.109375 0.222656 c -0.03125 0.074219 -0.058594 0.152344 -0.085938 0.234375 c -0.023437 0.082032 -0.042969 0.164063 -0.0625 0.246094 c -0.007812 0.042969 -0.015625 0.082031 -0.019531 0.125 c -0.007812 0.042969 -0.015625 0.085938 -0.019531 0.128906 c -0.003907 0.042969 -0.007813 0.085938 -0.007813 0.128906 c -0.003906 0.046876 -0.003906 0.089844 -0.003906 0.132813 v 34.488281 c 0 0.046875 0 0.089844 0.003906 0.132813 c 0 0.042969 0.003906 0.085937 0.007813 0.128906 c 0.003906 0.042969 0.011719 0.085937 0.019531 0.128906 c 0.003906 0.042969 0.011719 0.085938 0.019531 0.128907 c 0.019531 0.082031 0.039063 0.164062 0.0625 0.242187 c 0.027344 0.082031 0.054688 0.160156 0.085938 0.238281 c 0.035156 0.074219 0.070312 0.148438 0.109375 0.222656 c 0.039062 0.070313 0.082031 0.140626 0.128906 0.210938 c 0.042969 0.066406 0.09375 0.132812 0.144531 0.195312 s 0.109375 0.125 0.164063 0.183594 c 0.058594 0.058594 0.121094 0.113282 0.183594 0.164063 s 0.128906 0.101562 0.195312 0.148437 c 0.070312 0.042969 0.140625 0.085938 0.210938 0.125 c 0.074218 0.039063 0.148437 0.078125 0.222656 0.109375 c 0.078125 0.03125 0.15625 0.058594 0.238281 0.085938 c 0.078125 0.023437 0.160156 0.046875 0.242187 0.0625 c 0.042969 0.007812 0.085938 0.015625 0.128907 0.023437 c 0.042969 0.003906 0.085937 0.011719 0.128906 0.015625 c 0.042969 0.003907 0.085937 0.007813 0.128906 0.007813 c 0.042969 0.003906 0.085938 0.003906 0.132813 0.003906 h 22.722656 c 0.042969 0 0.085938 0 0.132812 -0.003906 c 0.042969 0 0.085938 -0.003906 0.128907 -0.007813 c 0.042969 -0.003906 0.085937 -0.011719 0.128906 -0.015625 c 0.042969 -0.007812 0.082031 -0.015625 0.125 -0.023437 c 0.082031 -0.015625 0.164063 -0.039063 0.246094 -0.0625 c 0.082031 -0.027344 0.160156 -0.054688 0.234375 -0.085938 c 0.078125 -0.03125 0.152344 -0.070312 0.222656 -0.109375 c 0.074219 -0.039062 0.144531 -0.082031 0.210938 -0.125 c 0.070312 -0.046875 0.136718 -0.097656 0.199218 -0.148437 s 0.121094 -0.105469 0.179688 -0.164063 s 0.113281 -0.121094 0.167968 -0.183594 c 0.050782 -0.0625 0.097657 -0.128906 0.144532 -0.195312 c 0.046875 -0.070312 0.089844 -0.140625 0.128906 -0.210938 c 0.039062 -0.074218 0.074219 -0.148437 0.105469 -0.222656 c 0.035156 -0.078125 0.0625 -0.15625 0.085937 -0.238281 c 0.027344 -0.078125 0.046875 -0.160156 0.0625 -0.242187 c 0.011719 -0.042969 0.015625 -0.085938 0.023438 -0.128907 c 0.007812 -0.042969 0.011718 -0.085937 0.015625 -0.128906 c 0.003906 -0.042969 0.007812 -0.085937 0.011719 -0.128906 c 0 -0.042969 0.003906 -0.085938 0.003906 -0.132813 v -25.074218 l -12.085938 -11.972657 z m 0 0" fill="url(#t)"/>
    <g mask="url(#u)">
        <g clip-path="url(#w)" transform="matrix(1 0 0 1 -8 -16)">
            <path d="m 116.320312 90.03125 v 0.679688 h 0.003907 l 0.042969 10.609374 c 0.003906 0.640626 0.523437 1.160157 1.164062 1.160157 h 11.238281 v -0.527344 h -0.613281 l -10.523438 -10.601563 c -0.261718 -0.261718 -0.523437 -0.527343 -0.785156 -0.792968 v -0.527344 z m 0 0" fill="url(#v)"/>
        </g>
    </g>
    <path d="m 108.84375 85.097656 v -11.035156 l 11.949219 11.945312 h -11.035157 c -0.503906 0 -0.914062 -0.40625 -0.914062 -0.910156 z m 0 0" fill="url(#x)"/>
    <path d="m 95.558594 73.5 c -0.046875 0 -0.089844 0 -0.132813 0.003906 c -0.042969 0 -0.085937 0.003906 -0.128906 0.007813 c -0.042969 0.007812 -0.085937 0.011719 -0.128906 0.019531 c -0.042969 0.003906 -0.085938 0.011719 -0.128907 0.019531 c -0.082031 0.019531 -0.164062 0.039063 -0.242187 0.0625 c -0.082031 0.027344 -0.160156 0.054688 -0.238281 0.085938 c -0.074219 0.035156 -0.148438 0.070312 -0.222656 0.109375 c -0.070313 0.039062 -0.140626 0.082031 -0.210938 0.128906 c -0.066406 0.042969 -0.132812 0.09375 -0.195312 0.144531 s -0.125 0.109375 -0.183594 0.164063 c -0.054688 0.058594 -0.113282 0.121094 -0.164063 0.183594 s -0.101562 0.128906 -0.144531 0.195312 c -0.046875 0.070312 -0.089844 0.140625 -0.128906 0.210938 c -0.039063 0.074218 -0.074219 0.148437 -0.109375 0.222656 c -0.03125 0.078125 -0.058594 0.15625 -0.085938 0.238281 c -0.023437 0.078125 -0.042969 0.160156 -0.0625 0.246094 c -0.007812 0.039062 -0.015625 0.082031 -0.019531 0.125 c -0.007812 0.042969 -0.015625 0.085937 -0.019531 0.128906 c -0.003907 0.042969 -0.007813 0.085937 -0.007813 0.128906 c -0.003906 0.042969 -0.003906 0.085938 -0.003906 0.132813 v 34.488281 c 0 0.042969 0 0.089844 0.003906 0.132813 c 0 0.042968 0.003906 0.085937 0.007813 0.128906 c 0.003906 0.042968 0.011719 0.085937 0.019531 0.128906 c 0.003906 0.042969 0.011719 0.085938 0.019531 0.125 c 0.019531 0.085938 0.039063 0.167969 0.0625 0.246094 c 0.027344 0.082031 0.054688 0.160156 0.085938 0.234375 c 0.035156 0.078125 0.070312 0.152343 0.109375 0.226562 c 0.039062 0.070313 0.082031 0.140625 0.128906 0.207031 c 0.042969 0.070313 0.09375 0.136719 0.144531 0.199219 s 0.109375 0.125 0.164063 0.179688 c 0.058594 0.058593 0.121094 0.113281 0.183594 0.167969 c 0.0625 0.050781 0.128906 0.097656 0.195312 0.144531 c 0.070312 0.046875 0.140625 0.089843 0.210938 0.128906 c 0.074218 0.039063 0.148437 0.074219 0.222656 0.105469 c 0.078125 0.035156 0.15625 0.0625 0.238281 0.085937 c 0.078125 0.027344 0.160156 0.046875 0.242187 0.0625 c 0.042969 0.011719 0.085938 0.019531 0.128907 0.023438 c 0.042969 0.007812 0.085937 0.011719 0.128906 0.015625 c 0.042969 0.007812 0.085937 0.007812 0.128906 0.011718 c 0.042969 0 0.085938 0.003907 0.132813 0.003907 h 22.722656 c 0.042969 0 0.085938 -0.003907 0.132812 -0.003907 l 0.128907 -0.011718 c 0.042969 -0.003906 0.085937 -0.007813 0.128906 -0.015625 c 0.042969 -0.003907 0.082031 -0.011719 0.125 -0.023438 c 0.082031 -0.015625 0.164063 -0.035156 0.246094 -0.0625 c 0.082031 -0.023437 0.160156 -0.050781 0.234375 -0.085937 c 0.078125 -0.03125 0.152344 -0.066406 0.222656 -0.105469 c 0.074219 -0.039063 0.144531 -0.082031 0.210938 -0.128906 c 0.070312 -0.046875 0.136718 -0.09375 0.199218 -0.144531 c 0.0625 -0.054688 0.121094 -0.109376 0.179688 -0.167969 c 0.058594 -0.054688 0.113281 -0.117188 0.167968 -0.179688 c 0.050782 -0.0625 0.097657 -0.128906 0.144532 -0.199219 c 0.046875 -0.066406 0.089844 -0.136718 0.128906 -0.207031 c 0.039062 -0.074219 0.074219 -0.148437 0.105469 -0.226562 c 0.035156 -0.074219 0.0625 -0.152344 0.085937 -0.234375 c 0.027344 -0.078125 0.046875 -0.160156 0.0625 -0.246094 c 0.011719 -0.039062 0.015625 -0.082031 0.023438 -0.125 c 0.007812 -0.042969 0.011718 -0.085938 0.015625 -0.128906 c 0.003906 -0.042969 0.007812 -0.085938 0.011719 -0.128906 c 0 -0.042969 0.003906 -0.089844 0.003906 -0.132813 v -25.078125 l -12.085938 -11.96875 z m 0 0" fill="url(#y)"/>
    <g mask="url(#z)">
        <g clip-path="url(#B)" transform="matrix(1 0 0 1 -8 -16)">
            <path d="m 116.320312 89.636719 v 0.679687 h 0.003907 l 0.042969 10.609375 c 0.003906 0.640625 0.523437 1.160157 1.164062 1.15625 h 11.238281 v -0.523437 h -0.613281 l -10.523438 -10.601563 c -0.261718 -0.265625 -0.523437 -0.527343 -0.785156 -0.792969 v -0.527343 z m 0 0" fill="url(#A)"/>
        </g>
    </g>
    <path d="m 108.84375 84.699219 v -11.03125 l 11.949219 11.945312 h -11.035157 c -0.503906 0 -0.914062 -0.410156 -0.914062 -0.914062 z m 0 0" fill="url(#C)"/>
</svg>
