<?xml version="1.0" encoding="UTF-8"?>
<svg height="16px" viewBox="0 0 16 16" width="16px" xmlns="http://www.w3.org/2000/svg">
    <path d="m 2.097656 0.996094 c 0.1875 -0.1875 0.441406 -0.292969 0.703125 -0.292969 c 0.265625 0 0.519531 0.105469 0.703125 0.292969 l 4.570313 4.570312 s 0.351562 0.351563 0.703125 0 c 0.351562 -0.351562 0 -0.703125 0 -0.703125 l -3.164063 -3.164062 c -0.1875 -0.1875 -0.292969 -0.4375 -0.292969 -0.703125 s 0.105469 -0.515625 0.292969 -0.703125 s 0.441407 -0.292969 0.703125 -0.292969 c 0.265625 0 0.519532 0.105469 0.703125 0.292969 l 5.976563 5.976562 c 0.351562 0.351563 0.703125 0 0.703125 0 l 0.0625 -2.460937 c -0.003907 -0.269532 0.101562 -0.527344 0.292969 -0.714844 c 0.820312 -0.703125 1.695312 0.082031 1.695312 0.714844 v 4.21875 c 0.0625 1.058594 -0.328125 2.144531 -0.996094 2.816406 l -4.21875 4.21875 c -2.109375 2.109375 -4.21875 0 -4.21875 0 l -5.625 -5.625 c -0.386718 -0.386719 -0.390625 -1.019531 0 -1.410156 c 0.386719 -0.386719 1.019532 -0.390625 1.40625 0 l 2.460938 2.464844 s 0.351562 0.351562 0.703125 0 c 0.351562 -0.351563 0 -0.703126 0 -0.703126 l -4.570313 -4.574218 c -0.1875 -0.1875 -0.292968 -0.441406 -0.292968 -0.703125 c 0 -0.265625 0.105468 -0.515625 0.292968 -0.703125 s 0.441406 -0.292969 0.703125 -0.292969 c 0.265625 0 0.519531 0.105469 0.703125 0.292969 l 3.867188 3.867187 s 0.351562 0.351563 0.703125 0 c 0.351562 -0.351562 0 -0.703125 0 -0.703125 l -4.570313 -4.570312 c -0.1875 -0.1875 -0.292968 -0.4375 -0.292968 -0.703125 s 0.105468 -0.519531 0.292968 -0.703125 m 0 0" fill="#222222"/>
</svg>
