<svg xmlns="http://www.w3.org/2000/svg" xmlns:xlink="http://www.w3.org/1999/xlink" width="636" height="636"><defs><linearGradient xlink:href="#a" id="L" x1="52" x2="77" y1="269.5" y2="269.5" gradientTransform="translate(174.793 82.707)" gradientUnits="userSpaceOnUse"/><linearGradient id="a"><stop offset="0" style="stop-color:#865e3c;stop-opacity:1"/><stop offset="1" style="stop-color:#5e5c64;stop-opacity:1"/></linearGradient><linearGradient xlink:href="#b" id="bf" x1="52" x2="77" y1="269.5" y2="269.5" gradientTransform="translate(175.5 82)" gradientUnits="userSpaceOnUse"/><linearGradient id="b"><stop offset="0" style="stop-color:#986a44;stop-opacity:1"/><stop offset="1" style="stop-color:#deddda;stop-opacity:1"/></linearGradient><linearGradient xlink:href="#c" id="N" x1="52" x2="77" y1="269.5" y2="269.5" gradientTransform="translate(176.5 82)" gradientUnits="userSpaceOnUse"/><linearGradient id="c"><stop offset="0" style="stop-color:#ff9628;stop-opacity:1"/><stop offset="1" style="stop-color:#c64600;stop-opacity:1"/></linearGradient><linearGradient xlink:href="#d" id="bh" x1="52" x2="77" y1="269.5" y2="269.5" gradientTransform="translate(175.5 82)" gradientUnits="userSpaceOnUse"/><linearGradient id="d"><stop offset="0" style="stop-color:#f6d32d;stop-opacity:1"/><stop offset="1" style="stop-color:#e5a50a;stop-opacity:1"/></linearGradient><linearGradient xlink:href="#e" id="P" x1="52" x2="77" y1="269.5" y2="269.5" gradientTransform="translate(176.207 81.293)" gradientUnits="userSpaceOnUse"/><linearGradient id="e"><stop offset="0" style="stop-color:#deddda;stop-opacity:1"/><stop offset="1" style="stop-color:#c0bfbc;stop-opacity:1"/></linearGradient><linearGradient xlink:href="#f" id="bj" x1="52" x2="77" y1="269.5" y2="269.5" gradientTransform="translate(175.5 82)" gradientUnits="userSpaceOnUse"/><linearGradient id="f"><stop offset="0" style="stop-color:#f6f5f4;stop-opacity:1"/><stop offset="1" style="stop-color:#deddda;stop-opacity:1"/></linearGradient><linearGradient xlink:href="#g" id="R" x1="52" x2="77" y1="269.5" y2="269.5" gradientTransform="translate(174.793 141.293)" gradientUnits="userSpaceOnUse"/><linearGradient id="g"><stop offset="0" style="stop-color:#deddda;stop-opacity:1"/><stop offset="1" style="stop-color:#3584e4;stop-opacity:1"/></linearGradient><linearGradient xlink:href="#h" id="bl" x1="52" x2="77" y1="269.5" y2="269.5" gradientTransform="translate(175.5 142)" gradientUnits="userSpaceOnUse"/><linearGradient id="h"><stop offset="0" style="stop-color:#f6f5f4;stop-opacity:1"/><stop offset="1" style="stop-color:#62a0ea;stop-opacity:1"/></linearGradient><linearGradient xlink:href="#i" id="T" x1="52" x2="77" y1="269.5" y2="269.5" gradientTransform="translate(174.793 122.707)" gradientUnits="userSpaceOnUse"/><linearGradient id="i"><stop offset="0" style="stop-color:#f6d32d;stop-opacity:1"/><stop offset="1" style="stop-color:#c64600;stop-opacity:1"/></linearGradient><linearGradient xlink:href="#j" id="bn" x1="52" x2="77" y1="269.5" y2="269.5" gradientTransform="translate(175.5 122)" gradientUnits="userSpaceOnUse"/><linearGradient id="j"><stop offset="0" style="stop-color:#f8e45c;stop-opacity:1"/><stop offset="1" style="stop-color:#ff7800;stop-opacity:1"/></linearGradient><linearGradient xlink:href="#k" id="V" x1="52" x2="77" y1="269.5" y2="269.5" gradientTransform="translate(176.207 101.293)" gradientUnits="userSpaceOnUse"/><linearGradient id="k"><stop offset="0" style="stop-color:#f8e45c;stop-opacity:1"/><stop offset="1" style="stop-color:#f5c211;stop-opacity:1"/></linearGradient><linearGradient xlink:href="#l" id="bp" x1="52" x2="77" y1="269.5" y2="269.5" gradientTransform="translate(175.5 102)" gradientUnits="userSpaceOnUse"/><linearGradient id="l"><stop offset="0" style="stop-color:#f9f06b;stop-opacity:1"/><stop offset="1" style="stop-color:#f6d32d;stop-opacity:1"/></linearGradient><linearGradient xlink:href="#m" id="X" x1="52" x2="77" y1="269.5" y2="269.5" gradientTransform="translate(.707 .707)" gradientUnits="userSpaceOnUse"/><linearGradient id="m"><stop offset="0" style="stop-color:#e01b24;stop-opacity:1"/><stop offset="1" style="stop-color:#a51d2d;stop-opacity:1"/></linearGradient><linearGradient xlink:href="#n" id="br" x1="52" x2="77" y1="269.5" y2="269.5" gradientUnits="userSpaceOnUse"/><linearGradient id="n"><stop offset="0" style="stop-color:#f66151;stop-opacity:1"/><stop offset="1" style="stop-color:#e01b24;stop-opacity:1"/></linearGradient><linearGradient xlink:href="#o" id="Z" x1="52" x2="77" y1="269.5" y2="269.5" gradientTransform="translate(97.056 16.344)" gradientUnits="userSpaceOnUse"/><linearGradient id="o"><stop offset="0" style="stop-color:#9141ac;stop-opacity:1"/><stop offset="1" style="stop-color:#613583;stop-opacity:1"/></linearGradient><linearGradient xlink:href="#p" id="bt" x1="52" x2="77" y1="269.5" y2="269.5" gradientTransform="translate(96.349 17.05)" gradientUnits="userSpaceOnUse"/><linearGradient id="p"><stop offset="0" style="stop-color:#dc8add;stop-opacity:1"/><stop offset="1" style="stop-color:#9141ac;stop-opacity:1"/></linearGradient><linearGradient xlink:href="#q" id="ab" x1="52" x2="77" y1="269.5" y2="269.5" gradientTransform="translate(97.04 -47.342)" gradientUnits="userSpaceOnUse"/><linearGradient id="q"><stop offset="0" style="stop-color:#3584e4;stop-opacity:1"/><stop offset="1" style="stop-color:#1a5fb4;stop-opacity:1"/></linearGradient><linearGradient xlink:href="#r" id="bv" x1="52" x2="77" y1="269.5" y2="269.5" gradientTransform="translate(97.747 -48.05)" gradientUnits="userSpaceOnUse"/><linearGradient id="r"><stop offset="0" style="stop-color:#99c1f1;stop-opacity:1"/><stop offset="1" style="stop-color:#3584e4;stop-opacity:1"/></linearGradient><linearGradient xlink:href="#a" id="ad" x1="52" x2="77" y1="269.5" y2="269.5" gradientTransform="translate(174.793 81.293)" gradientUnits="userSpaceOnUse"/><linearGradient xlink:href="#c" id="af" x1="52" x2="77" y1="269.5" y2="269.5" gradientTransform="translate(176.207 82.707)" gradientUnits="userSpaceOnUse"/><linearGradient xlink:href="#e" id="ah" x1="52" x2="77" y1="269.5" y2="269.5" gradientTransform="translate(174.793 81.293)" gradientUnits="userSpaceOnUse"/><linearGradient xlink:href="#g" id="aj" x1="52" x2="77" y1="269.5" y2="269.5" gradientTransform="translate(174.5 142)" gradientUnits="userSpaceOnUse"/><linearGradient xlink:href="#i" id="al" x1="52" x2="77" y1="269.5" y2="269.5" gradientTransform="translate(175.5 123)" gradientUnits="userSpaceOnUse"/><linearGradient xlink:href="#k" id="an" x1="52" x2="77" y1="269.5" y2="269.5" gradientTransform="translate(176.5 102)" gradientUnits="userSpaceOnUse"/><linearGradient xlink:href="#m" id="ap" x1="52" x2="77" y1="269.5" y2="269.5" gradientTransform="translate(0 1)" gradientUnits="userSpaceOnUse"/><linearGradient xlink:href="#o" id="ax" x1="52" x2="77" y1="269.5" y2="269.5" gradientTransform="translate(97.349 17.05)" gradientUnits="userSpaceOnUse"/><linearGradient xlink:href="#q" id="aK" x1="52" x2="77" y1="269.5" y2="269.5" gradientTransform="translate(97.747 -47.05)" gradientUnits="userSpaceOnUse"/><linearGradient xlink:href="#a" id="aM" x1="52" x2="77" y1="269.5" y2="269.5" gradientTransform="translate(174.5 82)" gradientUnits="userSpaceOnUse"/><linearGradient xlink:href="#c" id="aO" x1="52" x2="77" y1="269.5" y2="269.5" gradientTransform="translate(175.5 83)" gradientUnits="userSpaceOnUse"/><linearGradient xlink:href="#e" id="aQ" x1="52" x2="77" y1="269.5" y2="269.5" gradientTransform="translate(175.5 81)" gradientUnits="userSpaceOnUse"/><linearGradient xlink:href="#g" id="aS" x1="52" x2="77" y1="269.5" y2="269.5" gradientTransform="translate(175.5 141)" gradientUnits="userSpaceOnUse"/><linearGradient xlink:href="#i" id="aU" x1="52" x2="77" y1="269.5" y2="269.5" gradientTransform="translate(175.5 123)" gradientUnits="userSpaceOnUse"/><linearGradient xlink:href="#k" id="aW" x1="52" x2="77" y1="269.5" y2="269.5" gradientTransform="translate(176.207 102.707)" gradientUnits="userSpaceOnUse"/><linearGradient xlink:href="#m" id="aY" x1="52" x2="77" y1="269.5" y2="269.5" gradientTransform="translate(0 1)" gradientUnits="userSpaceOnUse"/><linearGradient xlink:href="#o" id="ba" x1="52" x2="77" y1="269.5" y2="269.5" gradientTransform="translate(96.349 16.051)" gradientUnits="userSpaceOnUse"/><linearGradient xlink:href="#q" id="bc" x1="52" x2="77" y1="269.5" y2="269.5" gradientTransform="translate(96.747 -48.05)" gradientUnits="userSpaceOnUse"/><linearGradient xlink:href="#a" id="be" x1="52" x2="77" y1="269.5" y2="269.5" gradientTransform="translate(174.557 81.668)" gradientUnits="userSpaceOnUse"/><linearGradient xlink:href="#c" id="bg" x1="52" x2="77" y1="269.5" y2="269.5" gradientTransform="translate(176.273 82.635)" gradientUnits="userSpaceOnUse"/><linearGradient xlink:href="#e" id="bi" x1="52" x2="77" y1="269.5" y2="269.5" gradientTransform="translate(175.664 81.014)" gradientUnits="userSpaceOnUse"/><linearGradient xlink:href="#g" id="bk" x1="52" x2="77" y1="269.5" y2="269.5" gradientTransform="translate(174.991 141.139)" gradientUnits="userSpaceOnUse"/><linearGradient xlink:href="#i" id="bm" x1="52" x2="77" y1="269.5" y2="269.5" gradientTransform="translate(175.009 122.871)" gradientUnits="userSpaceOnUse"/><linearGradient xlink:href="#k" id="bo" x1="52" x2="77" y1="269.5" y2="269.5" gradientTransform="translate(176.5 101.99)" gradientUnits="userSpaceOnUse"/><linearGradient xlink:href="#m" id="bq" x1="52" x2="77" y1="269.5" y2="269.5" gradientTransform="translate(.184 .983)" gradientUnits="userSpaceOnUse"/><linearGradient xlink:href="#o" id="bs" x1="52" x2="77" y1="269.5" y2="269.5" gradientTransform="translate(97.108 16.4)" gradientUnits="userSpaceOnUse"/><linearGradient xlink:href="#q" id="bu" x1="52" x2="77" y1="269.5" y2="269.5" gradientTransform="translate(96.81 -47.698)" gradientUnits="userSpaceOnUse"/><linearGradient xlink:href="#s" id="bw" x1="52.75" x2="64" y1="244.438" y2="244.438" gradientUnits="userSpaceOnUse"/><linearGradient id="s"><stop offset="0" style="stop-color:#9a9996;stop-opacity:1"/><stop offset="1" style="stop-color:#77767b;stop-opacity:1"/></linearGradient><linearGradient xlink:href="#e" id="bx" x1="24.625" x2="109" y1="221.938" y2="221.938" gradientUnits="userSpaceOnUse"/><linearGradient xlink:href="#t" id="by" x1="19" x2="52.773" y1="245.549" y2="245.549" gradientUnits="userSpaceOnUse"/><linearGradient id="t"><stop offset="0" style="stop-color:#b5835a;stop-opacity:1"/><stop offset="1" style="stop-color:#865e3c;stop-opacity:1"/></linearGradient><linearGradient xlink:href="#u" id="bz" x1="23" x2="48.773" y1="245.549" y2="245.549" gradientUnits="userSpaceOnUse"/><linearGradient id="u"><stop offset="0" style="stop-color:#986a44;stop-opacity:1"/><stop offset="1" style="stop-color:#865e3c;stop-opacity:1"/></linearGradient><linearGradient xlink:href="#v" id="bA" x1="55.938" x2="75.938" y1="224.785" y2="224.785" gradientUnits="userSpaceOnUse"/><linearGradient id="v"><stop offset="0" style="stop-color:#77767b;stop-opacity:1"/><stop offset="1" style="stop-color:#5e5c64;stop-opacity:1"/></linearGradient><linearGradient xlink:href="#v" id="bD" x1="55.938" x2="75.938" y1="213.486" y2="213.486" gradientUnits="userSpaceOnUse"/><linearGradient xlink:href="#w" id="bC" x1="45.67" x2="50.95" y1="36.501" y2="36.501" gradientTransform="translate(36.298 252.228)scale(1.033)" gradientUnits="userSpaceOnUse"/><linearGradient id="w"><stop offset="0" style="stop-color:#fff;stop-opacity:1"/><stop offset="1" style="stop-color:#f6f5f4;stop-opacity:1"/></linearGradient><linearGradient xlink:href="#c" id="bE" x1="67.229" x2="110.878" y1="221.735" y2="265.384" gradientTransform="translate(-25.054 -7.06)" gradientUnits="userSpaceOnUse"/><linearGradient xlink:href="#d" id="bF" x1="67.229" x2="110.878" y1="219.735" y2="263.384" gradientTransform="translate(-25.054 -7.06)" gradientUnits="userSpaceOnUse"/><linearGradient xlink:href="#x" id="bG" x1="19.5" x2="109.5" y1="235.687" y2="235.687" gradientTransform="translate(-.5 .313)" gradientUnits="userSpaceOnUse"/><linearGradient id="x"><stop offset="0" style="stop-color:#deddda;stop-opacity:1"/><stop offset="1" style="stop-color:#9a9996;stop-opacity:1"/></linearGradient><linearGradient xlink:href="#f" id="bH" x1="19.5" x2="109.5" y1="233.687" y2="233.687" gradientTransform="translate(-.5 .313)" gradientUnits="userSpaceOnUse"/><linearGradient xlink:href="#q" id="bI" x1="64" x2="64" y1="205.333" y2="258.667" gradientTransform="translate(-8 -26)scale(1.125)" gradientUnits="userSpaceOnUse"/><linearGradient xlink:href="#r" id="bJ" x1="64" x2="64" y1="205.333" y2="258.667" gradientTransform="translate(-8 -27)scale(1.125)" gradientUnits="userSpaceOnUse"/><linearGradient xlink:href="#y" id="bK" x1="77.333" x2="50.667" y1="234" y2="234" gradientTransform="translate(-48 -176.5)scale(1.75)" gradientUnits="userSpaceOnUse"/><linearGradient id="y"><stop offset="0" style="stop-color:#fff;stop-opacity:1"/><stop offset="1" style="stop-color:#fff;stop-opacity:0"/></linearGradient><linearGradient id="H"><stop offset="0" style="stop-color:#c64600;stop-opacity:1"/><stop offset="1" style="stop-color:#a51d2d;stop-opacity:1"/></linearGradient><linearGradient id="C"><stop offset="0" style="stop-color:#f6d32d;stop-opacity:1"/><stop offset="1" style="stop-color:#f9f06b;stop-opacity:1"/></linearGradient><linearGradient xlink:href="#z" id="bO" x1="16" x2="115.414" y1="262.493" y2="262.493" gradientUnits="userSpaceOnUse"/><linearGradient id="z"><stop offset="0" style="stop-color:#f6d32d;stop-opacity:1"/><stop offset="1" style="stop-color:#f5c211;stop-opacity:1"/></linearGradient><linearGradient xlink:href="#A" id="bP" x1="65.707" x2="65.707" y1="212.786" y2="312.2" gradientUnits="userSpaceOnUse"/><linearGradient id="A"><stop offset="0" style="stop-color:#f5c211;stop-opacity:1"/><stop offset="1" style="stop-color:#e5a50a;stop-opacity:1"/></linearGradient><linearGradient xlink:href="#B" id="bQ" x1="17.129" x2="116" y1="237.547" y2="237.547" gradientUnits="userSpaceOnUse"/><linearGradient id="B"><stop offset="0" style="stop-color:#f9f06b;stop-opacity:1"/><stop offset="1" style="stop-color:#f5c211;stop-opacity:1"/></linearGradient><linearGradient xlink:href="#C" id="bR" x1="66.565" x2="66.565" y1="187.89" y2="287.203" gradientUnits="userSpaceOnUse"/><linearGradient xlink:href="#D" id="bS" x1="6" x2="6.445" y1="6.5" y2="6.5" gradientTransform="scale(-5.36038 5.36038)rotate(89.772 -6.256 -16.34)" gradientUnits="userSpaceOnUse"/><linearGradient id="D"><stop offset="0" style="stop-color:#000;stop-opacity:1"/><stop offset="1" style="stop-color:#4d4d4d;stop-opacity:0"/></linearGradient><linearGradient xlink:href="#E" id="bT" x1="33.674" x2="86.799" y1="43.625" y2="43.625" gradientTransform="translate(112.164 -64.376)scale(1.00901)" gradientUnits="userSpaceOnUse"/><linearGradient id="E"><stop offset="0" style="stop-color:#77767b;stop-opacity:1"/><stop offset=".853" style="stop-color:#77767b;stop-opacity:1"/><stop offset="1" style="stop-color:#77767b;stop-opacity:1"/></linearGradient><linearGradient xlink:href="#e" id="bU" x1="33.674" x2="86.799" y1="37.213" y2="37.213" gradientTransform="translate(112.164 -64.376)scale(1.00901)" gradientUnits="userSpaceOnUse"/><linearGradient xlink:href="#F" id="bV" x1="43.675" x2="73.482" y1="52.918" y2="8.943" gradientTransform="translate(112.164 -64.376)scale(1.00901)" gradientUnits="userSpaceOnUse"/><linearGradient id="F"><stop offset="0" style="stop-color:#77767b;stop-opacity:1"/><stop offset="1" style="stop-color:#77767b;stop-opacity:1"/></linearGradient><linearGradient xlink:href="#e" id="bW" x1="39.277" x2="69.91" y1="49.938" y2="6.522" gradientTransform="translate(112.164 -64.376)scale(1.00901)" gradientUnits="userSpaceOnUse"/><linearGradient xlink:href="#w" id="bX" x1="45.67" x2="50.95" y1="36.501" y2="36.501" gradientTransform="translate(111.753 -63.95)scale(1.00901)" gradientUnits="userSpaceOnUse"/><linearGradient xlink:href="#G" id="cf" x1="25.194" x2="25.194" y1="295.986" y2="395.986" gradientUnits="userSpaceOnUse"/><linearGradient id="G"><stop offset="0" style="stop-color:#3584e4;stop-opacity:1"/><stop offset="1" style="stop-color:#0a274d;stop-opacity:1"/></linearGradient><linearGradient xlink:href="#b" id="M" x1="52" x2="77" y1="269.5" y2="269.5" gradientTransform="translate(175.5 82)" gradientUnits="userSpaceOnUse"/><linearGradient xlink:href="#d" id="O" x1="52" x2="77" y1="269.5" y2="269.5" gradientTransform="translate(175.5 82)" gradientUnits="userSpaceOnUse"/><linearGradient xlink:href="#f" id="Q" x1="52" x2="77" y1="269.5" y2="269.5" gradientTransform="translate(175.5 82)" gradientUnits="userSpaceOnUse"/><linearGradient xlink:href="#h" id="S" x1="52" x2="77" y1="269.5" y2="269.5" gradientTransform="translate(175.5 142)" gradientUnits="userSpaceOnUse"/><linearGradient xlink:href="#j" id="U" x1="52" x2="77" y1="269.5" y2="269.5" gradientTransform="translate(175.5 122)" gradientUnits="userSpaceOnUse"/><linearGradient xlink:href="#l" id="W" x1="52" x2="77" y1="269.5" y2="269.5" gradientTransform="translate(175.5 102)" gradientUnits="userSpaceOnUse"/><linearGradient xlink:href="#n" id="Y" x1="52" x2="77" y1="269.5" y2="269.5" gradientUnits="userSpaceOnUse"/><linearGradient xlink:href="#p" id="aa" x1="52" x2="77" y1="269.5" y2="269.5" gradientTransform="translate(96.349 17.05)" gradientUnits="userSpaceOnUse"/><linearGradient xlink:href="#r" id="ac" x1="52" x2="77" y1="269.5" y2="269.5" gradientTransform="translate(97.747 -48.05)" gradientUnits="userSpaceOnUse"/><linearGradient xlink:href="#b" id="ae" x1="52" x2="77" y1="269.5" y2="269.5" gradientTransform="translate(175.5 82)" gradientUnits="userSpaceOnUse"/><linearGradient xlink:href="#d" id="ag" x1="52" x2="77" y1="269.5" y2="269.5" gradientTransform="translate(175.5 82)" gradientUnits="userSpaceOnUse"/><linearGradient xlink:href="#f" id="ai" x1="52" x2="77" y1="269.5" y2="269.5" gradientTransform="translate(175.5 82)" gradientUnits="userSpaceOnUse"/><linearGradient xlink:href="#h" id="ak" x1="52" x2="77" y1="269.5" y2="269.5" gradientTransform="translate(175.5 142)" gradientUnits="userSpaceOnUse"/><linearGradient xlink:href="#j" id="am" x1="52" x2="77" y1="269.5" y2="269.5" gradientTransform="translate(175.5 122)" gradientUnits="userSpaceOnUse"/><linearGradient xlink:href="#l" id="ao" x1="52" x2="77" y1="269.5" y2="269.5" gradientTransform="translate(175.5 102)" gradientUnits="userSpaceOnUse"/><linearGradient xlink:href="#n" id="aq" x1="52" x2="77" y1="269.5" y2="269.5" gradientUnits="userSpaceOnUse"/><linearGradient xlink:href="#p" id="aJ" x1="52" x2="77" y1="269.5" y2="269.5" gradientTransform="translate(96.349 17.05)" gradientUnits="userSpaceOnUse"/><linearGradient xlink:href="#r" id="aL" x1="52" x2="77" y1="269.5" y2="269.5" gradientTransform="translate(97.747 -48.05)" gradientUnits="userSpaceOnUse"/><linearGradient xlink:href="#b" id="aN" x1="52" x2="77" y1="269.5" y2="269.5" gradientTransform="translate(175.5 82)" gradientUnits="userSpaceOnUse"/><linearGradient xlink:href="#d" id="aP" x1="52" x2="77" y1="269.5" y2="269.5" gradientTransform="translate(175.5 82)" gradientUnits="userSpaceOnUse"/><linearGradient xlink:href="#f" id="aR" x1="52" x2="77" y1="269.5" y2="269.5" gradientTransform="translate(175.5 82)" gradientUnits="userSpaceOnUse"/><linearGradient xlink:href="#h" id="aT" x1="52" x2="77" y1="269.5" y2="269.5" gradientTransform="translate(175.5 142)" gradientUnits="userSpaceOnUse"/><linearGradient xlink:href="#j" id="aV" x1="52" x2="77" y1="269.5" y2="269.5" gradientTransform="translate(175.5 122)" gradientUnits="userSpaceOnUse"/><linearGradient xlink:href="#l" id="aX" x1="52" x2="77" y1="269.5" y2="269.5" gradientTransform="translate(175.5 102)" gradientUnits="userSpaceOnUse"/><linearGradient xlink:href="#n" id="aZ" x1="52" x2="77" y1="269.5" y2="269.5" gradientUnits="userSpaceOnUse"/><linearGradient xlink:href="#p" id="bb" x1="52" x2="77" y1="269.5" y2="269.5" gradientTransform="translate(96.349 17.05)" gradientUnits="userSpaceOnUse"/><linearGradient xlink:href="#r" id="bd" x1="52" x2="77" y1="269.5" y2="269.5" gradientTransform="translate(97.747 -48.05)" gradientUnits="userSpaceOnUse"/><linearGradient xlink:href="#v" id="bB" x1="55.938" x2="75.938" y1="213.486" y2="213.486" gradientUnits="userSpaceOnUse"/><linearGradient xlink:href="#G" id="cg" x1="25.194" x2="25.194" y1="295.986" y2="395.986" gradientUnits="userSpaceOnUse"/><linearGradient xlink:href="#G" id="ch" x1="25.194" x2="25.194" y1="295.986" y2="395.986" gradientUnits="userSpaceOnUse"/><linearGradient xlink:href="#G" id="ci" x1="25.194" x2="25.194" y1="295.986" y2="395.986" gradientUnits="userSpaceOnUse"/><linearGradient xlink:href="#H" id="bL" x1="67" x2="67" y1="202" y2="280" gradientTransform="translate(-7 -4)" gradientUnits="userSpaceOnUse"/><linearGradient xlink:href="#I" id="bM" x1="67" x2="67" y1="202" y2="280" gradientTransform="translate(-7 -5)" gradientUnits="userSpaceOnUse"/><linearGradient id="I"><stop offset="0" style="stop-color:#c64600;stop-opacity:1"/><stop offset="1" style="stop-color:#ff7800;stop-opacity:1"/></linearGradient><linearGradient xlink:href="#C" id="bN" x1="67.333" x2="67.333" y1="246.667" y2="281.333" gradientTransform="matrix(1.21154 0 0 1.25 -21.577 -74)" gradientUnits="userSpaceOnUse"/><linearGradient xlink:href="#o" id="bY" x1="68.374" x2="68.374" y1="209.626" y2="269.374" gradientUnits="userSpaceOnUse"/><linearGradient xlink:href="#J" id="cc" x1="64.874" x2="64.874" y1="207.626" y2="267.374" gradientTransform="translate(3.5 1.998)scale(1.00001)" gradientUnits="userSpaceOnUse"/><linearGradient id="J"><stop offset="0" style="stop-color:#dc8add;stop-opacity:1"/><stop offset="1" style="stop-color:#c061cb;stop-opacity:1"/></linearGradient><linearGradient xlink:href="#K" id="cd" x1="81.242" x2="81.242" y1="195.291" y2="222.007" gradientTransform="translate(3.5 1.998)scale(1.00001)" gradientUnits="userSpaceOnUse"/><linearGradient id="K"><stop offset="0" style="stop-color:#c061cb;stop-opacity:1"/><stop offset="1" style="stop-color:#3d3846;stop-opacity:1"/></linearGradient><linearGradient xlink:href="#p" id="ce" x1="137.399" x2="151.235" y1="115.846" y2="115.846" gradientUnits="userSpaceOnUse"/><linearGradient xlink:href="#o" id="bZ" x1="68.374" x2="68.374" y1="209.626" y2="269.374" gradientUnits="userSpaceOnUse"/><linearGradient xlink:href="#o" id="ca" x1="68.374" x2="68.374" y1="209.626" y2="269.374" gradientUnits="userSpaceOnUse"/><linearGradient xlink:href="#o" id="cb" x1="68.374" x2="68.374" y1="209.626" y2="269.374" gradientUnits="userSpaceOnUse"/></defs><g style="display:inline"><g fill="#222" fill-rule="evenodd" style="display:inline"><g style="display:inline"><path d="M243.6 343.707a2.1 2.1 0 0 0-1.491.598 2.16 2.16 0 0 0-.041 3.013l2.663 2.764h-15.84c-1.156 0-2.098.954-2.098 2.125 0 1.17.942 2.124 2.098 2.124h15.84l-2.663 2.764a2.16 2.16 0 0 0 .04 3.013 2.086 2.086 0 0 0 2.967-.041l6.122-6.375a2.15 2.15 0 0 0 0-2.971l-6.122-6.374a2.1 2.1 0 0 0-1.475-.64m0 0" style="fill:url(#L);stroke-width:2.1113" transform="rotate(-45 -206.765 512.992)scale(2)"/><path d="M244.307 343a2.1 2.1 0 0 0-1.491.598 2.16 2.16 0 0 0-.041 3.013l2.663 2.764h-15.84c-1.156 0-2.098.954-2.098 2.124s.942 2.125 2.098 2.125h15.84l-2.663 2.764a2.16 2.16 0 0 0 .04 3.013 2.086 2.086 0 0 0 2.967-.041l6.122-6.375a2.15 2.15 0 0 0 0-2.971l-6.122-6.375a2.1 2.1 0 0 0-1.475-.639m0 0" style="display:inline;fill:url(#M);stroke-width:2.1113" transform="rotate(-45 -206.765 512.992)scale(2)"/></g><g style="display:inline"><path d="M245.307 343a2.1 2.1 0 0 0-1.491.598 2.16 2.16 0 0 0-.041 3.013l2.663 2.764h-15.84c-1.156 0-2.098.954-2.098 2.124s.942 2.125 2.098 2.125h15.84l-2.663 2.764a2.16 2.16 0 0 0 .04 3.013 2.086 2.086 0 0 0 2.967-.041l6.122-6.375a2.15 2.15 0 0 0 0-2.971l-6.122-6.375a2.1 2.1 0 0 0-1.475-.639m0 0" style="fill:url(#N);stroke-width:2.1113" transform="matrix(0 2 -2 0 964.056 1.047)"/><path d="M244.307 343a2.1 2.1 0 0 0-1.491.598 2.16 2.16 0 0 0-.041 3.013l2.663 2.764h-15.84c-1.156 0-2.098.954-2.098 2.124s.942 2.125 2.098 2.125h15.84l-2.663 2.764a2.16 2.16 0 0 0 .04 3.013 2.086 2.086 0 0 0 2.967-.041l6.122-6.375a2.15 2.15 0 0 0 0-2.971l-6.122-6.375a2.1 2.1 0 0 0-1.475-.639m0 0" style="display:inline;fill:url(#O);stroke-width:2.1113" transform="matrix(0 2 -2 0 964.056 1.047)"/></g><g style="display:inline"><path d="M245.014 342.293a2.1 2.1 0 0 0-1.491.598 2.16 2.16 0 0 0-.041 3.013l2.663 2.764h-15.84c-1.156 0-2.098.954-2.098 2.125 0 1.17.942 2.124 2.098 2.124h15.84l-2.663 2.764a2.16 2.16 0 0 0 .04 3.013 2.086 2.086 0 0 0 2.967-.041l6.122-6.375a2.15 2.15 0 0 0 0-2.971l-6.122-6.375a2.1 2.1 0 0 0-1.475-.639m0 0" style="fill:url(#P);stroke-width:2.1113" transform="rotate(135 392.889 522.376)scale(2)"/><path d="M244.307 343a2.1 2.1 0 0 0-1.491.598 2.16 2.16 0 0 0-.041 3.013l2.663 2.764h-15.84c-1.156 0-2.098.954-2.098 2.124s.942 2.125 2.098 2.125h15.84l-2.663 2.764a2.16 2.16 0 0 0 .04 3.013 2.086 2.086 0 0 0 2.967-.041l6.122-6.375a2.15 2.15 0 0 0 0-2.971l-6.122-6.375a2.1 2.1 0 0 0-1.475-.639m0 0" style="display:inline;fill:url(#Q);stroke-width:2.1113" transform="rotate(135 392.889 522.376)scale(2)"/></g><g style="display:inline"><path d="M243.6 402.293a2.1 2.1 0 0 0-1.491.598 2.16 2.16 0 0 0-.041 3.013l2.663 2.763h-15.84c-1.156 0-2.098.955-2.098 2.125s.942 2.125 2.098 2.125h15.84l-2.663 2.764a2.16 2.16 0 0 0 .04 3.013 2.086 2.086 0 0 0 2.967-.042l6.122-6.374a2.15 2.15 0 0 0 0-2.971l-6.122-6.375a2.1 2.1 0 0 0-1.475-.639m0 0" style="fill:url(#R);stroke-width:2.1113" transform="rotate(-135 206.372 555.663)scale(2)"/><path d="M244.307 403a2.1 2.1 0 0 0-1.491.598 2.16 2.16 0 0 0-.041 3.013l2.663 2.764h-15.84c-1.156 0-2.098.954-2.098 2.124s.942 2.125 2.098 2.125h15.84l-2.663 2.764a2.16 2.16 0 0 0 .04 3.013 2.086 2.086 0 0 0 2.967-.041l6.122-6.375a2.15 2.15 0 0 0 0-2.971l-6.122-6.375a2.1 2.1 0 0 0-1.475-.639m0 0" style="display:inline;fill:url(#S);stroke-width:2.1113" transform="rotate(-135 206.372 555.663)scale(2)"/></g><g style="display:inline"><path d="M243.6 383.707a2.1 2.1 0 0 0-1.491.598 2.16 2.16 0 0 0-.041 3.013l2.663 2.764h-15.84c-1.156 0-2.098.954-2.098 2.125 0 1.17.942 2.125 2.098 2.125h15.84l-2.663 2.763a2.16 2.16 0 0 0 .04 3.013 2.086 2.086 0 0 0 2.967-.041l6.122-6.375a2.15 2.15 0 0 0 0-2.971l-6.122-6.374a2.1 2.1 0 0 0-1.475-.64m0 0" style="fill:url(#T);stroke-width:2.1113" transform="rotate(-45 -332.773 582.075)scale(2)"/><path d="M244.307 383a2.1 2.1 0 0 0-1.491.598 2.16 2.16 0 0 0-.041 3.013l2.663 2.764h-15.84c-1.156 0-2.098.954-2.098 2.124s.942 2.125 2.098 2.125h15.84l-2.663 2.764a2.16 2.16 0 0 0 .04 3.013 2.086 2.086 0 0 0 2.967-.041l6.122-6.375a2.15 2.15 0 0 0 0-2.971l-6.122-6.375a2.1 2.1 0 0 0-1.475-.639m0 0" style="display:inline;fill:url(#U);stroke-width:2.1113" transform="rotate(-45 -332.773 582.075)scale(2)"/></g><g style="display:inline"><path d="M245.014 362.293a2.1 2.1 0 0 0-1.491.598 2.16 2.16 0 0 0-.041 3.013l2.663 2.764h-15.84c-1.156 0-2.098.954-2.098 2.124s.942 2.125 2.098 2.125h15.84l-2.663 2.764a2.16 2.16 0 0 0 .041 3.013 2.086 2.086 0 0 0 2.966-.041l6.122-6.375a2.15 2.15 0 0 0 0-2.971l-6.122-6.375a2.1 2.1 0 0 0-1.475-.639m0 0" style="fill:url(#V);stroke-width:2.1113" transform="rotate(135 387.422 509.36)scale(2)"/><path d="M244.307 363a2.1 2.1 0 0 0-1.491.598 2.16 2.16 0 0 0-.041 3.013l2.663 2.764h-15.84c-1.156 0-2.098.954-2.098 2.124s.942 2.125 2.098 2.125h15.84l-2.663 2.764a2.16 2.16 0 0 0 .04 3.013 2.086 2.086 0 0 0 2.967-.041l6.122-6.375a2.15 2.15 0 0 0 0-2.971l-6.122-6.375a2.1 2.1 0 0 0-1.475-.639m0 0" style="display:inline;fill:url(#W);stroke-width:2.1113" transform="rotate(135 387.422 509.36)scale(2)"/></g><g style="display:inline"><path d="M69.514 261.707a2.1 2.1 0 0 0-1.491.598 2.16 2.16 0 0 0-.041 3.013l2.663 2.764h-15.84c-1.156 0-2.098.954-2.098 2.124s.942 2.125 2.098 2.125h15.84l-2.663 2.764a2.16 2.16 0 0 0 .04 3.013 2.086 2.086 0 0 0 2.967-.041l6.122-6.375a2.15 2.15 0 0 0 0-2.971l-6.122-6.375a2.1 2.1 0 0 0-1.475-.639m0 0" style="fill:url(#X);stroke-width:2.1113" transform="rotate(45 343.954 850.9)scale(2)"/><path d="M68.807 261a2.1 2.1 0 0 0-1.491.598 2.16 2.16 0 0 0-.041 3.013l2.663 2.764h-15.84c-1.156 0-2.098.954-2.098 2.124s.942 2.125 2.098 2.125h15.84l-2.663 2.764a2.16 2.16 0 0 0 .04 3.013 2.086 2.086 0 0 0 2.967-.041l6.122-6.375a2.15 2.15 0 0 0 0-2.971l-6.122-6.375a2.1 2.1 0 0 0-1.475-.639m0 0" style="display:inline;fill:url(#Y);stroke-width:2.1113" transform="rotate(45 343.954 850.9)scale(2)"/></g><g style="display:inline"><path d="M165.863 277.344a2.1 2.1 0 0 0-1.491.598 2.16 2.16 0 0 0-.041 3.012l2.663 2.764h-15.84c-1.156 0-2.098.955-2.098 2.125s.942 2.125 2.098 2.125h15.84l-2.663 2.764a2.16 2.16 0 0 0 .04 3.013 2.086 2.086 0 0 0 2.967-.042l6.122-6.374a2.15 2.15 0 0 0 0-2.972l-6.122-6.374a2.1 2.1 0 0 0-1.475-.64m0 0" style="fill:url(#Z);stroke-width:2.1113" transform="rotate(135 284.113 471.573)scale(2)"/><path d="M165.156 278.051a2.1 2.1 0 0 0-1.491.598 2.16 2.16 0 0 0-.041 3.013l2.663 2.763h-15.84c-1.156 0-2.098.955-2.098 2.125s.942 2.125 2.098 2.125h15.84l-2.663 2.764a2.16 2.16 0 0 0 .04 3.013 2.086 2.086 0 0 0 2.967-.041l6.122-6.375a2.15 2.15 0 0 0 0-2.971l-6.122-6.375a2.1 2.1 0 0 0-1.475-.639m0 0" style="display:inline;fill:url(#aa);stroke-width:2.1113" transform="rotate(135 284.113 471.573)scale(2)"/></g><g style="display:inline"><path d="M165.847 213.658a2.1 2.1 0 0 0-1.491.598 2.16 2.16 0 0 0-.041 3.013l2.663 2.764h-15.84c-1.156 0-2.098.954-2.098 2.124s.942 2.125 2.097 2.125h15.84l-2.662 2.764a2.16 2.16 0 0 0 .04 3.013 2.086 2.086 0 0 0 2.967-.041l6.121-6.375a2.15 2.15 0 0 0 0-2.971l-6.121-6.375a2.1 2.1 0 0 0-1.475-.639m0 0" style="fill:url(#ab);stroke-width:2.1113" transform="rotate(-45 67.543 201.718)scale(2)"/><path d="M166.554 212.95a2.1 2.1 0 0 0-1.491.599 2.16 2.16 0 0 0-.041 3.012l2.663 2.764h-15.84c-1.156 0-2.098.955-2.098 2.125s.942 2.125 2.098 2.125h15.84l-2.663 2.764a2.16 2.16 0 0 0 .04 3.013 2.086 2.086 0 0 0 2.967-.042l6.122-6.374a2.15 2.15 0 0 0 0-2.972l-6.122-6.374a2.1 2.1 0 0 0-1.475-.64m0 0" style="display:inline;fill:url(#ac);stroke-width:2.1113" transform="rotate(-45 67.543 201.718)scale(2)"/></g><g style="display:inline"><path d="M243.6 342.293a2.1 2.1 0 0 0-1.491.598 2.16 2.16 0 0 0-.041 3.013l2.663 2.764h-15.84c-1.156 0-2.098.954-2.098 2.124s.942 2.125 2.098 2.125h15.84l-2.663 2.764a2.16 2.16 0 0 0 .04 3.013 2.086 2.086 0 0 0 2.967-.041l6.122-6.375a2.15 2.15 0 0 0 0-2.971l-6.122-6.375a2.1 2.1 0 0 0-1.475-.639m0 0" style="fill:url(#ad);stroke-width:2.1113" transform="rotate(-135 230.147 514.376)scale(2)"/><path d="M244.307 343a2.1 2.1 0 0 0-1.491.598 2.16 2.16 0 0 0-.041 3.013l2.663 2.764h-15.84c-1.156 0-2.098.954-2.098 2.124s.942 2.125 2.098 2.125h15.84l-2.663 2.764a2.16 2.16 0 0 0 .04 3.013 2.086 2.086 0 0 0 2.967-.041l6.122-6.375a2.15 2.15 0 0 0 0-2.971l-6.122-6.375a2.1 2.1 0 0 0-1.475-.639m0 0" style="display:inline;fill:url(#ae);stroke-width:2.1113" transform="rotate(-135 230.147 514.376)scale(2)"/></g><g style="display:inline"><path d="M245.014 343.707a2.1 2.1 0 0 0-1.491.598 2.16 2.16 0 0 0-.041 3.013l2.663 2.764h-15.84c-1.156 0-2.098.954-2.098 2.125 0 1.17.942 2.124 2.098 2.124h15.84l-2.663 2.764a2.16 2.16 0 0 0 .041 3.013 2.086 2.086 0 0 0 2.966-.041l6.122-6.375a2.15 2.15 0 0 0 0-2.971l-6.122-6.375a2.1 2.1 0 0 0-1.475-.639m0 0" style="fill:url(#af);stroke-width:2.1113" transform="rotate(45 673.109 487.16)scale(2)"/><path d="M244.307 343a2.1 2.1 0 0 0-1.491.598 2.16 2.16 0 0 0-.041 3.013l2.663 2.764h-15.84c-1.156 0-2.098.954-2.098 2.124s.942 2.125 2.098 2.125h15.84l-2.663 2.764a2.16 2.16 0 0 0 .04 3.013 2.086 2.086 0 0 0 2.967-.041l6.122-6.375a2.15 2.15 0 0 0 0-2.971l-6.122-6.375a2.1 2.1 0 0 0-1.475-.639m0 0" style="display:inline;fill:url(#ag);stroke-width:2.1113" transform="rotate(45 673.109 487.16)scale(2)"/></g><g style="display:inline"><path d="M243.6 342.293a2.1 2.1 0 0 0-1.491.598 2.16 2.16 0 0 0-.041 3.012l2.663 2.764h-15.84c-1.156 0-2.098.955-2.098 2.125s.942 2.125 2.098 2.125h15.84l-2.663 2.764a2.16 2.16 0 0 0 .04 3.013 2.086 2.086 0 0 0 2.967-.042l6.122-6.374a2.15 2.15 0 0 0 0-2.971l-6.122-6.375a2.1 2.1 0 0 0-1.475-.64m0 0" style="fill:url(#ah);stroke-width:2.1113" transform="rotate(-135 219.843 531.598)scale(2)"/><path d="M244.307 343a2.1 2.1 0 0 0-1.491.598 2.16 2.16 0 0 0-.041 3.013l2.663 2.764h-15.84c-1.156 0-2.098.954-2.098 2.124s.942 2.125 2.098 2.125h15.84l-2.663 2.764a2.16 2.16 0 0 0 .04 3.013 2.086 2.086 0 0 0 2.967-.041l6.122-6.375a2.15 2.15 0 0 0 0-2.971l-6.122-6.375a2.1 2.1 0 0 0-1.475-.639m0 0" style="display:inline;fill:url(#ai);stroke-width:2.1113" transform="rotate(-135 219.843 531.598)scale(2)"/></g><g style="display:inline"><path d="M243.307 403a2.1 2.1 0 0 0-1.491.598 2.16 2.16 0 0 0-.041 3.013l2.663 2.764h-15.84c-1.156 0-2.098.954-2.098 2.124s.942 2.125 2.098 2.125h15.84l-2.663 2.764a2.16 2.16 0 0 0 .04 3.013 2.086 2.086 0 0 0 2.967-.041l6.122-6.375a2.15 2.15 0 0 0 0-2.971l-6.122-6.375a2.1 2.1 0 0 0-1.475-.639m0 0" style="fill:url(#aj);stroke-width:2.1113" transform="matrix(0 -2 2 0 -512.343 635.39)"/><path d="M244.307 403a2.1 2.1 0 0 0-1.491.598 2.16 2.16 0 0 0-.041 3.013l2.663 2.764h-15.84c-1.156 0-2.098.954-2.098 2.124s.942 2.125 2.098 2.125h15.84l-2.663 2.764a2.16 2.16 0 0 0 .04 3.013 2.086 2.086 0 0 0 2.967-.041l6.122-6.375a2.15 2.15 0 0 0 0-2.971l-6.122-6.375a2.1 2.1 0 0 0-1.475-.639m0 0" style="display:inline;fill:url(#ak);stroke-width:2.1113" transform="matrix(0 -2 2 0 -512.343 635.39)"/></g><g style="display:inline"><path d="M244.307 384a2.1 2.1 0 0 0-1.491.598 2.16 2.16 0 0 0-.041 3.013l2.663 2.764h-15.84c-1.156 0-2.098.954-2.098 2.125 0 1.17.942 2.124 2.098 2.124h15.84l-2.663 2.764a2.16 2.16 0 0 0 .04 3.013 2.086 2.086 0 0 0 2.967-.041l6.122-6.375a2.15 2.15 0 0 0 0-2.971l-6.122-6.375a2.1 2.1 0 0 0-1.475-.639m0 0" style="fill:url(#al);stroke-width:2.1113" transform="matrix(2 0 0 2 9.843 -564.613)"/><path d="M244.307 383a2.1 2.1 0 0 0-1.491.598 2.16 2.16 0 0 0-.041 3.013l2.663 2.764h-15.84c-1.156 0-2.098.954-2.098 2.124s.942 2.125 2.098 2.125h15.84l-2.663 2.764a2.16 2.16 0 0 0 .04 3.013 2.086 2.086 0 0 0 2.967-.041l6.122-6.375a2.15 2.15 0 0 0 0-2.971l-6.122-6.375a2.1 2.1 0 0 0-1.475-.639m0 0" style="display:inline;fill:url(#am);stroke-width:2.1113" transform="matrix(2 0 0 2 9.843 -564.613)"/></g><g style="display:inline"><path d="M245.307 363a2.1 2.1 0 0 0-1.491.598 2.16 2.16 0 0 0-.041 3.013l2.663 2.764h-15.84c-1.156 0-2.098.954-2.098 2.124s.942 2.125 2.098 2.125h15.84l-2.663 2.764a2.16 2.16 0 0 0 .04 3.013 2.086 2.086 0 0 0 2.967-.041l6.122-6.375a2.15 2.15 0 0 0 0-2.971l-6.122-6.375a2.1 2.1 0 0 0-1.475-.639m0 0" style="fill:url(#an);stroke-width:2.1113" transform="matrix(0 2 -2 0 1030.697 16.808)"/><path d="M244.307 363a2.1 2.1 0 0 0-1.491.598 2.16 2.16 0 0 0-.041 3.013l2.663 2.764h-15.84c-1.156 0-2.098.954-2.098 2.124s.942 2.125 2.098 2.125h15.84l-2.663 2.764a2.16 2.16 0 0 0 .04 3.013 2.086 2.086 0 0 0 2.967-.041l6.122-6.375a2.15 2.15 0 0 0 0-2.971l-6.122-6.375a2.1 2.1 0 0 0-1.475-.639m0 0" style="display:inline;fill:url(#ao);stroke-width:2.1113" transform="matrix(0 2 -2 0 1030.697 16.808)"/></g><g style="display:inline"><path d="M68.807 262a2.1 2.1 0 0 0-1.491.598 2.16 2.16 0 0 0-.041 3.013l2.663 2.764h-15.84c-1.156 0-2.098.954-2.098 2.125 0 1.17.942 2.124 2.098 2.124h15.84l-2.663 2.764a2.16 2.16 0 0 0 .04 3.013 2.086 2.086 0 0 0 2.967-.041l6.122-6.375a2.15 2.15 0 0 0 0-2.971l-6.122-6.375a2.1 2.1 0 0 0-1.475-.639m0 0" style="fill:url(#ap);stroke-width:2.1113" transform="matrix(2 0 0 2 369.05 -266.781)"/><path d="M68.807 261a2.1 2.1 0 0 0-1.491.598 2.16 2.16 0 0 0-.041 3.013l2.663 2.764h-15.84c-1.156 0-2.098.954-2.098 2.124s.942 2.125 2.098 2.125h15.84l-2.663 2.764a2.16 2.16 0 0 0 .04 3.013 2.086 2.086 0 0 0 2.967-.041l6.122-6.375a2.15 2.15 0 0 0 0-2.971l-6.122-6.375a2.1 2.1 0 0 0-1.475-.639m0 0" style="display:inline;fill:url(#aq);stroke-width:2.1113" transform="matrix(2 0 0 2 369.05 -266.781)"/></g><g style="display:inline"><path d="M166.156 278.051a2.1 2.1 0 0 0-1.491.598 2.16 2.16 0 0 0-.041 3.013l2.663 2.763h-15.84c-1.156 0-2.098.955-2.098 2.125s.942 2.125 2.098 2.125h15.84l-2.663 2.764a2.16 2.16 0 0 0 .04 3.013 2.086 2.086 0 0 0 2.967-.041l6.122-6.375a2.15 2.15 0 0 0 0-2.971l-6.122-6.375a2.1 2.1 0 0 0-1.475-.639m0 0" style="fill:url(#ax);stroke-width:2.1113" transform="matrix(0 2 -2 0 889.783 160.542)"/><path d="M165.156 278.051a2.1 2.1 0 0 0-1.491.598 2.16 2.16 0 0 0-.041 3.013l2.663 2.763h-15.84c-1.156 0-2.098.955-2.098 2.125s.942 2.125 2.098 2.125h15.84l-2.663 2.764a2.16 2.16 0 0 0 .04 3.013 2.086 2.086 0 0 0 2.967-.041l6.122-6.375a2.15 2.15 0 0 0 0-2.971l-6.122-6.375a2.1 2.1 0 0 0-1.475-.639m0 0" style="display:inline;fill:url(#aJ);stroke-width:2.1113" transform="matrix(0 2 -2 0 889.783 160.542)"/></g><g style="display:inline"><path d="M166.554 213.95a2.1 2.1 0 0 0-1.491.598 2.16 2.16 0 0 0-.041 3.013l2.663 2.764h-15.84c-1.156 0-2.098.955-2.098 2.125s.942 2.125 2.098 2.125h15.84l-2.663 2.764a2.16 2.16 0 0 0 .04 3.013 2.086 2.086 0 0 0 2.967-.042l6.122-6.374a2.15 2.15 0 0 0 0-2.972l-6.122-6.374a2.1 2.1 0 0 0-1.475-.64m0 0" style="fill:url(#aK);stroke-width:2.1113" transform="matrix(2 0 0 2 152.15 -195.157)"/><path d="M166.554 212.95a2.1 2.1 0 0 0-1.491.599 2.16 2.16 0 0 0-.041 3.012l2.663 2.764h-15.84c-1.156 0-2.098.955-2.098 2.125s.942 2.125 2.098 2.125h15.84l-2.663 2.764a2.16 2.16 0 0 0 .04 3.013 2.086 2.086 0 0 0 2.967-.042l6.122-6.374a2.15 2.15 0 0 0 0-2.972l-6.122-6.374a2.1 2.1 0 0 0-1.475-.64m0 0" style="display:inline;fill:url(#aL);stroke-width:2.1113" transform="matrix(2 0 0 2 152.15 -195.157)"/></g><g style="display:inline"><path d="M243.307 343a2.1 2.1 0 0 0-1.491.598 2.16 2.16 0 0 0-.041 3.013l2.663 2.764h-15.84c-1.156 0-2.098.954-2.098 2.124s.942 2.125 2.098 2.125h15.84l-2.663 2.764a2.16 2.16 0 0 0 .04 3.013 2.086 2.086 0 0 0 2.967-.041l6.122-6.375a2.15 2.15 0 0 0 0-2.971l-6.122-6.375a2.1 2.1 0 0 0-1.475-.639m0 0" style="fill:url(#aM);stroke-width:2.1113" transform="matrix(0 -2 2 0 -421.196 620)"/><path d="M244.307 343a2.1 2.1 0 0 0-1.491.598 2.16 2.16 0 0 0-.041 3.013l2.663 2.764h-15.84c-1.156 0-2.098.954-2.098 2.124s.942 2.125 2.098 2.125h15.84l-2.663 2.764a2.16 2.16 0 0 0 .04 3.013 2.086 2.086 0 0 0 2.967-.041l6.122-6.375a2.15 2.15 0 0 0 0-2.971l-6.122-6.375a2.1 2.1 0 0 0-1.475-.639m0 0" style="display:inline;fill:url(#aN);stroke-width:2.1113" transform="matrix(0 -2 2 0 -421.196 620)"/></g><g style="display:inline"><path d="M244.307 344a2.1 2.1 0 0 0-1.491.598 2.16 2.16 0 0 0-.041 3.013l2.663 2.764h-15.84c-1.156 0-2.098.954-2.098 2.125 0 1.17.942 2.125 2.098 2.125h15.84l-2.663 2.763a2.16 2.16 0 0 0 .04 3.013 2.086 2.086 0 0 0 2.967-.041l6.122-6.375a2.15 2.15 0 0 0 0-2.971l-6.122-6.374a2.1 2.1 0 0 0-1.475-.64m0 0" style="fill:url(#aO);stroke-width:2.1113" transform="matrix(2 0 0 2 -5.008 -310.075)"/><path d="M244.307 343a2.1 2.1 0 0 0-1.491.598 2.16 2.16 0 0 0-.041 3.013l2.663 2.764h-15.84c-1.156 0-2.098.954-2.098 2.124s.942 2.125 2.098 2.125h15.84l-2.663 2.764a2.16 2.16 0 0 0 .04 3.013 2.086 2.086 0 0 0 2.967-.041l6.122-6.375a2.15 2.15 0 0 0 0-2.971l-6.122-6.375a2.1 2.1 0 0 0-1.475-.639m0 0" style="display:inline;fill:url(#aP);stroke-width:2.1113" transform="matrix(2 0 0 2 -5.008 -310.075)"/></g><g style="display:inline"><path d="M244.307 342a2.1 2.1 0 0 0-1.491.598 2.16 2.16 0 0 0-.041 3.013l2.663 2.764h-15.84c-1.156 0-2.098.954-2.098 2.125 0 1.17.942 2.125 2.098 2.125h15.84l-2.663 2.763a2.16 2.16 0 0 0 .04 3.013 2.086 2.086 0 0 0 2.967-.041l6.122-6.375a2.15 2.15 0 0 0 0-2.971l-6.122-6.374a2.1 2.1 0 0 0-1.475-.64m0 0" style="fill:url(#aQ);stroke-width:2.1113" transform="matrix(-2 0 0 -2 648.608 1047.024)"/><path d="M244.307 343a2.1 2.1 0 0 0-1.491.598 2.16 2.16 0 0 0-.041 3.013l2.663 2.764h-15.84c-1.156 0-2.098.954-2.098 2.124s.942 2.125 2.098 2.125h15.84l-2.663 2.764a2.16 2.16 0 0 0 .04 3.013 2.086 2.086 0 0 0 2.967-.041l6.122-6.375a2.15 2.15 0 0 0 0-2.971l-6.122-6.375a2.1 2.1 0 0 0-1.475-.639m0 0" style="display:inline;fill:url(#aR);stroke-width:2.1113" transform="matrix(-2 0 0 -2 648.608 1047.024)"/></g><g style="display:inline"><path d="M244.307 402a2.1 2.1 0 0 0-1.491.598 2.16 2.16 0 0 0-.041 3.013l2.663 2.763h-15.84c-1.156 0-2.098.955-2.098 2.125s.942 2.125 2.098 2.125h15.84l-2.663 2.764a2.16 2.16 0 0 0 .04 3.013 2.086 2.086 0 0 0 2.967-.042l6.122-6.374a2.15 2.15 0 0 0 0-2.971l-6.122-6.375a2.1 2.1 0 0 0-1.475-.639m0 0" style="fill:url(#aS);stroke-width:2.1113" transform="matrix(-2 0 0 -2 647.437 1117.71)"/><path d="M244.307 403a2.1 2.1 0 0 0-1.491.598 2.16 2.16 0 0 0-.041 3.013l2.663 2.764h-15.84c-1.156 0-2.098.954-2.098 2.124s.942 2.125 2.098 2.125h15.84l-2.663 2.764a2.16 2.16 0 0 0 .04 3.013 2.086 2.086 0 0 0 2.967-.041l6.122-6.375a2.15 2.15 0 0 0 0-2.971l-6.122-6.375a2.1 2.1 0 0 0-1.475-.639m0 0" style="display:inline;fill:url(#aT);stroke-width:2.1113" transform="matrix(-2 0 0 -2 647.437 1117.71)"/></g><g style="display:inline"><path d="M244.307 384a2.1 2.1 0 0 0-1.491.598 2.16 2.16 0 0 0-.041 3.013l2.663 2.764h-15.84c-1.156 0-2.098.954-2.098 2.124s.942 2.125 2.098 2.125h15.84l-2.663 2.764a2.16 2.16 0 0 0 .04 3.013 2.086 2.086 0 0 0 2.967-.041l6.122-6.375a2.15 2.15 0 0 0 0-2.971l-6.122-6.375a2.1 2.1 0 0 0-1.475-.639m0 0" style="fill:url(#aU);stroke-width:2.1113" transform="matrix(2 0 0 2 10.505 -361.128)"/><path d="M244.307 383a2.1 2.1 0 0 0-1.491.598 2.16 2.16 0 0 0-.041 3.013l2.663 2.764h-15.84c-1.156 0-2.098.954-2.098 2.124s.942 2.125 2.098 2.125h15.84l-2.663 2.764a2.16 2.16 0 0 0 .04 3.013 2.086 2.086 0 0 0 2.967-.041l6.122-6.375a2.15 2.15 0 0 0 0-2.971l-6.122-6.375a2.1 2.1 0 0 0-1.475-.639m0 0" style="display:inline;fill:url(#aV);stroke-width:2.1113" transform="matrix(2 0 0 2 10.505 -361.128)"/></g><g style="display:inline"><path d="M245.015 363.707a2.1 2.1 0 0 0-1.492.598 2.16 2.16 0 0 0-.04 3.013l2.662 2.764h-15.84c-1.155 0-2.098.954-2.098 2.125 0 1.17.943 2.125 2.098 2.125h15.84l-2.663 2.763a2.16 2.16 0 0 0 .041 3.013 2.086 2.086 0 0 0 2.967-.041l6.121-6.375a2.15 2.15 0 0 0 0-2.971l-6.121-6.374a2.1 2.1 0 0 0-1.475-.64m0 0" style="fill:url(#aW);stroke-width:2.1113" transform="rotate(45 797.276 561.643)scale(2)"/><path d="M244.307 363a2.1 2.1 0 0 0-1.491.598 2.16 2.16 0 0 0-.041 3.013l2.663 2.764h-15.84c-1.156 0-2.098.954-2.098 2.124s.942 2.125 2.098 2.125h15.84l-2.663 2.764a2.16 2.16 0 0 0 .04 3.013 2.086 2.086 0 0 0 2.967-.041l6.122-6.375a2.15 2.15 0 0 0 0-2.971l-6.122-6.375a2.1 2.1 0 0 0-1.475-.639m0 0" style="display:inline;fill:url(#aX);stroke-width:2.1113" transform="rotate(45 797.276 561.643)scale(2)"/></g><g style="display:inline"><path d="M68.807 262a2.1 2.1 0 0 0-1.491.598 2.16 2.16 0 0 0-.041 3.013l2.663 2.764h-15.84c-1.156 0-2.098.954-2.098 2.125 0 1.17.942 2.124 2.098 2.124h15.84l-2.663 2.764a2.16 2.16 0 0 0 .04 3.013 2.086 2.086 0 0 0 2.967-.041l6.122-6.375a2.15 2.15 0 0 0 0-2.971l-6.122-6.375a2.1 2.1 0 0 0-1.475-.639m0 0" style="fill:url(#aY);stroke-width:2.1113" transform="matrix(2 0 0 2 372.97 -170.526)"/><path d="M68.807 261a2.1 2.1 0 0 0-1.491.598 2.16 2.16 0 0 0-.041 3.013l2.663 2.764h-15.84c-1.156 0-2.098.954-2.098 2.124s.942 2.125 2.098 2.125h15.84l-2.663 2.764a2.16 2.16 0 0 0 .04 3.013 2.086 2.086 0 0 0 2.967-.041l6.122-6.375a2.15 2.15 0 0 0 0-2.971l-6.122-6.375a2.1 2.1 0 0 0-1.475-.639m0 0" style="display:inline;fill:url(#aZ);stroke-width:2.1113" transform="matrix(2 0 0 2 372.97 -170.526)"/></g><g style="display:inline"><path d="M165.156 277.051a2.1 2.1 0 0 0-1.491.598 2.16 2.16 0 0 0-.041 3.013l2.663 2.764h-15.84c-1.156 0-2.098.954-2.098 2.124s.942 2.125 2.098 2.125h15.84l-2.663 2.764a2.16 2.16 0 0 0 .04 3.013 2.086 2.086 0 0 0 2.967-.041l6.122-6.375a2.15 2.15 0 0 0 0-2.971l-6.122-6.375a2.1 2.1 0 0 0-1.475-.639m0 0" style="fill:url(#ba);stroke-width:2.1113" transform="matrix(-2 0 0 -2 467.26 893.251)"/><path d="M165.156 278.051a2.1 2.1 0 0 0-1.491.598 2.16 2.16 0 0 0-.041 3.013l2.663 2.763h-15.84c-1.156 0-2.098.955-2.098 2.125s.942 2.125 2.098 2.125h15.84l-2.663 2.764a2.16 2.16 0 0 0 .04 3.013 2.086 2.086 0 0 0 2.967-.041l6.122-6.375a2.15 2.15 0 0 0 0-2.971l-6.122-6.375a2.1 2.1 0 0 0-1.475-.639m0 0" style="display:inline;fill:url(#bb);stroke-width:2.1113" transform="matrix(-2 0 0 -2 467.26 893.251)"/></g><g style="display:inline"><path d="M165.554 212.95a2.1 2.1 0 0 0-1.491.599 2.16 2.16 0 0 0-.041 3.012l2.663 2.764h-15.84c-1.156 0-2.098.955-2.098 2.125s.942 2.125 2.098 2.125h15.84l-2.663 2.764a2.16 2.16 0 0 0 .04 3.013 2.086 2.086 0 0 0 2.967-.042l6.122-6.374a2.15 2.15 0 0 0 0-2.972l-6.122-6.374a2.1 2.1 0 0 0-1.475-.64m0 0" style="fill:url(#bc);stroke-width:2.1113" transform="matrix(0 -2 2 0 -186.788 482.435)"/><path d="M166.554 212.95a2.1 2.1 0 0 0-1.491.599 2.16 2.16 0 0 0-.041 3.012l2.663 2.764h-15.84c-1.156 0-2.098.955-2.098 2.125s.942 2.125 2.098 2.125h15.84l-2.663 2.764a2.16 2.16 0 0 0 .04 3.013 2.086 2.086 0 0 0 2.967-.042l6.122-6.374a2.15 2.15 0 0 0 0-2.972l-6.122-6.374a2.1 2.1 0 0 0-1.475-.64m0 0" style="display:inline;fill:url(#bd);stroke-width:2.1113" transform="matrix(0 -2 2 0 -186.788 482.435)"/></g></g><g fill="#222" fill-rule="evenodd" style="display:inline"><g style="display:inline"><path d="M243.364 342.668a2.1 2.1 0 0 0-1.491.598 2.16 2.16 0 0 0-.041 3.012l2.663 2.764h-15.84c-1.156 0-2.098.955-2.098 2.125s.942 2.125 2.098 2.125h15.84l-2.663 2.764a2.16 2.16 0 0 0 .041 3.013 2.086 2.086 0 0 0 2.966-.042l6.122-6.374a2.15 2.15 0 0 0 0-2.972l-6.122-6.374a2.1 2.1 0 0 0-1.475-.64m0 0" style="fill:url(#be);stroke-width:2.1113" transform="rotate(-109.414 182.591 685.61)scale(2)"/><path d="M244.307 343a2.1 2.1 0 0 0-1.491.598 2.16 2.16 0 0 0-.041 3.013l2.663 2.764h-15.84c-1.156 0-2.098.954-2.098 2.124s.942 2.125 2.098 2.125h15.84l-2.663 2.764a2.16 2.16 0 0 0 .04 3.013 2.086 2.086 0 0 0 2.967-.041l6.122-6.375a2.15 2.15 0 0 0 0-2.971l-6.122-6.375a2.1 2.1 0 0 0-1.475-.639m0 0" style="display:inline;fill:url(#bf);stroke-width:2.1113" transform="rotate(-109.414 182.591 685.61)scale(2)"/></g><g style="display:inline"><path d="M245.08 343.635a2.1 2.1 0 0 0-1.491.598 2.16 2.16 0 0 0-.041 3.013l2.663 2.764h-15.84c-1.156 0-2.098.954-2.098 2.124s.942 2.125 2.097 2.125h15.84l-2.662 2.764a2.16 2.16 0 0 0 .04 3.013 2.086 2.086 0 0 0 2.967-.041l6.121-6.375a2.15 2.15 0 0 0 0-2.971l-6.121-6.375a2.1 2.1 0 0 0-1.475-.639m0 0" style="fill:url(#bg);stroke-width:2.1113" transform="rotate(50.586 1060.082 466.856)scale(2)"/><path d="M244.307 343a2.1 2.1 0 0 0-1.491.598 2.16 2.16 0 0 0-.041 3.013l2.663 2.764h-15.84c-1.156 0-2.098.954-2.098 2.124s.942 2.125 2.098 2.125h15.84l-2.663 2.764a2.16 2.16 0 0 0 .04 3.013 2.086 2.086 0 0 0 2.967-.041l6.122-6.375a2.15 2.15 0 0 0 0-2.971l-6.122-6.375a2.1 2.1 0 0 0-1.475-.639m0 0" style="display:inline;fill:url(#bh);stroke-width:2.1113" transform="rotate(50.586 1060.082 466.856)scale(2)"/></g><g style="display:inline"><path d="M244.47 342.014a2.1 2.1 0 0 0-1.49.597 2.16 2.16 0 0 0-.042 3.013l2.664 2.764h-15.84c-1.156 0-2.098.955-2.098 2.125s.942 2.125 2.097 2.125h15.84l-2.663 2.764a2.16 2.16 0 0 0 .041 3.013 2.086 2.086 0 0 0 2.967-.042l6.121-6.374a2.15 2.15 0 0 0 0-2.972l-6.121-6.374a2.1 2.1 0 0 0-1.475-.64m0 0" style="fill:url(#bi);stroke-width:2.1113" transform="rotate(170.586 428.123 624.4)scale(2)"/><path d="M244.307 343a2.1 2.1 0 0 0-1.491.598 2.16 2.16 0 0 0-.041 3.013l2.663 2.764h-15.84c-1.156 0-2.098.954-2.098 2.124s.942 2.125 2.098 2.125h15.84l-2.663 2.764a2.16 2.16 0 0 0 .04 3.013 2.086 2.086 0 0 0 2.967-.041l6.122-6.375a2.15 2.15 0 0 0 0-2.971l-6.122-6.375a2.1 2.1 0 0 0-1.475-.639m0 0" style="display:inline;fill:url(#bj);stroke-width:2.1113" transform="rotate(170.586 428.123 624.4)scale(2)"/></g><g style="display:inline"><path d="M243.798 402.14a2.1 2.1 0 0 0-1.491.597 2.16 2.16 0 0 0-.041 3.013l2.663 2.764h-15.84c-1.156 0-2.098.954-2.098 2.124s.942 2.125 2.098 2.125h15.84l-2.663 2.764a2.16 2.16 0 0 0 .041 3.013 2.086 2.086 0 0 0 2.966-.041l6.122-6.375a2.15 2.15 0 0 0 0-2.971l-6.122-6.375a2.1 2.1 0 0 0-1.475-.639m0 0" style="fill:url(#bk);stroke-width:2.1113" transform="rotate(-149.414 301.169 711.959)scale(2)"/><path d="M244.307 403a2.1 2.1 0 0 0-1.491.598 2.16 2.16 0 0 0-.041 3.013l2.663 2.764h-15.84c-1.156 0-2.098.954-2.098 2.124s.942 2.125 2.098 2.125h15.84l-2.663 2.764a2.16 2.16 0 0 0 .04 3.013 2.086 2.086 0 0 0 2.967-.041l6.122-6.375a2.15 2.15 0 0 0 0-2.971l-6.122-6.375a2.1 2.1 0 0 0-1.475-.639m0 0" style="display:inline;fill:url(#bl);stroke-width:2.1113" transform="rotate(-149.414 301.169 711.959)scale(2)"/></g><g style="display:inline"><path d="M243.816 383.872a2.1 2.1 0 0 0-1.491.597 2.16 2.16 0 0 0-.041 3.013l2.663 2.764h-15.84c-1.156 0-2.098.954-2.098 2.125 0 1.17.942 2.125 2.098 2.125h15.84l-2.663 2.764a2.16 2.16 0 0 0 .04 3.012 2.086 2.086 0 0 0 2.967-.041l6.122-6.374a2.15 2.15 0 0 0 0-2.972l-6.122-6.374a2.1 2.1 0 0 0-1.475-.64m0 0" style="fill:url(#bm);stroke-width:2.1113" transform="rotate(-29.414 -933.679 965.897)scale(2)"/><path d="M244.307 383a2.1 2.1 0 0 0-1.491.598 2.16 2.16 0 0 0-.041 3.013l2.663 2.764h-15.84c-1.156 0-2.098.954-2.098 2.124s.942 2.125 2.098 2.125h15.84l-2.663 2.764a2.16 2.16 0 0 0 .04 3.013 2.086 2.086 0 0 0 2.967-.041l6.122-6.375a2.15 2.15 0 0 0 0-2.971l-6.122-6.375a2.1 2.1 0 0 0-1.475-.639m0 0" style="display:inline;fill:url(#bn);stroke-width:2.1113" transform="rotate(-29.414 -933.679 965.897)scale(2)"/></g><g style="display:inline"><path d="M245.307 362.99a2.1 2.1 0 0 0-1.491.598 2.16 2.16 0 0 0-.041 3.013l2.663 2.763h-15.84c-1.156 0-2.098.955-2.098 2.125s.942 2.125 2.098 2.125h15.84l-2.663 2.764a2.16 2.16 0 0 0 .041 3.013 2.086 2.086 0 0 0 2.966-.042l6.122-6.374a2.15 2.15 0 0 0 0-2.971l-6.122-6.375a2.1 2.1 0 0 0-1.475-.64m0 0" style="fill:url(#bo);stroke-width:2.1113" transform="rotate(90.586 729.895 574.105)scale(2)"/><path d="M244.307 363a2.1 2.1 0 0 0-1.491.598 2.16 2.16 0 0 0-.041 3.013l2.663 2.764h-15.84c-1.156 0-2.098.954-2.098 2.124s.942 2.125 2.098 2.125h15.84l-2.663 2.764a2.16 2.16 0 0 0 .04 3.013 2.086 2.086 0 0 0 2.967-.041l6.122-6.375a2.15 2.15 0 0 0 0-2.971l-6.122-6.375a2.1 2.1 0 0 0-1.475-.639m0 0" style="display:inline;fill:url(#bp);stroke-width:2.1113" transform="rotate(90.586 729.895 574.105)scale(2)"/></g><g style="display:inline"><path d="M68.991 261.983a2.1 2.1 0 0 0-1.491.598 2.16 2.16 0 0 0-.041 3.013l2.663 2.763h-15.84c-1.156 0-2.098.955-2.098 2.125s.942 2.125 2.098 2.125h15.84l-2.663 2.764a2.16 2.16 0 0 0 .04 3.013 2.086 2.086 0 0 0 2.967-.042l6.122-6.374a2.15 2.15 0 0 0 0-2.971l-6.122-6.375a2.1 2.1 0 0 0-1.475-.64m0 0" style="fill:url(#bq);stroke-width:2.1113" transform="rotate(10.586 2695.82 1606.989)scale(2)"/><path d="M68.807 261a2.1 2.1 0 0 0-1.491.598 2.16 2.16 0 0 0-.041 3.013l2.663 2.764h-15.84c-1.156 0-2.098.954-2.098 2.124s.942 2.125 2.098 2.125h15.84l-2.663 2.764a2.16 2.16 0 0 0 .04 3.013 2.086 2.086 0 0 0 2.967-.041l6.122-6.375a2.15 2.15 0 0 0 0-2.971l-6.122-6.375a2.1 2.1 0 0 0-1.475-.639m0 0" style="display:inline;fill:url(#br);stroke-width:2.1113" transform="rotate(10.586 2695.82 1606.989)scale(2)"/></g><g style="display:inline"><path d="M165.915 277.4a2.1 2.1 0 0 0-1.491.598 2.16 2.16 0 0 0-.041 3.013l2.663 2.764h-15.84c-1.156 0-2.098.955-2.098 2.125s.942 2.125 2.098 2.125h15.84l-2.663 2.764a2.16 2.16 0 0 0 .04 3.013 2.086 2.086 0 0 0 2.967-.042l6.122-6.374a2.15 2.15 0 0 0 0-2.972l-6.122-6.374a2.1 2.1 0 0 0-1.475-.64m0 0" style="fill:url(#bs);stroke-width:2.1113" transform="rotate(130.586 436.466 566.606)scale(2)"/><path d="M165.156 278.051a2.1 2.1 0 0 0-1.491.598 2.16 2.16 0 0 0-.041 3.013l2.663 2.763h-15.84c-1.156 0-2.098.955-2.098 2.125s.942 2.125 2.098 2.125h15.84l-2.663 2.764a2.16 2.16 0 0 0 .04 3.013 2.086 2.086 0 0 0 2.967-.041l6.122-6.375a2.15 2.15 0 0 0 0-2.971l-6.122-6.375a2.1 2.1 0 0 0-1.475-.639m0 0" style="display:inline;fill:url(#bt);stroke-width:2.1113" transform="rotate(130.586 436.466 566.606)scale(2)"/></g><g style="display:inline"><path d="M165.618 213.303a2.1 2.1 0 0 0-1.492.597 2.16 2.16 0 0 0-.04 3.013l2.663 2.764h-15.84c-1.156 0-2.099.955-2.099 2.125s.943 2.125 2.098 2.125h15.84l-2.663 2.764a2.16 2.16 0 0 0 .041 3.013 2.086 2.086 0 0 0 2.967-.042l6.121-6.374a2.15 2.15 0 0 0 0-2.972l-6.121-6.374a2.1 2.1 0 0 0-1.475-.64m0 0" style="fill:url(#bu);stroke-width:2.1113" transform="rotate(-69.414 63.928 500.307)scale(2)"/><path d="M166.554 212.95a2.1 2.1 0 0 0-1.491.599 2.16 2.16 0 0 0-.041 3.012l2.663 2.764h-15.84c-1.156 0-2.098.955-2.098 2.125s.942 2.125 2.098 2.125h15.84l-2.663 2.764a2.16 2.16 0 0 0 .04 3.013 2.086 2.086 0 0 0 2.967-.042l6.122-6.374a2.15 2.15 0 0 0 0-2.972l-6.122-6.374a2.1 2.1 0 0 0-1.475-.64m0 0" style="display:inline;fill:url(#bv);stroke-width:2.1113" transform="rotate(-69.414 63.928 500.307)scale(2)"/></g></g><g style="display:inline" transform="translate(-467.011 -11.661)"><circle cx="270.683" cy="622.5" r="53" style="display:inline;fill:#b5835a;fill-opacity:.3;stroke-width:.711596" transform="translate(319.317 -122.5)"/><g style="display:inline"><path fill="#222" d="M52.75 238.813s1.662 9.341 11.25 11.25v-11.25Z" style="display:inline;fill:#3d3846;fill-opacity:1;stroke-width:5.625" transform="translate(526 264.5)"/><path d="m80.875 205.063-33.75.006v11.205c-.006-.702-.008.078-.01 1.703a5.625 5.625 0 0 0-5.615-5.283H24.625v3.625h11.25c3.094 0 5.625 2.53 5.625 5.625v2.22l5.62 6.64.005 8.009h33.75v-16.875H109v-14.875h-5.625l-5.625 5.625H80.875v-2zm-22.5 5.63H75.25v5.625H58.375Zm0 11.25H75.25v5.625H58.375Z" style="display:inline;fill:#5e5c64;stroke-width:5.625" transform="translate(526 264.5)"/><path fill="#222" d="M41.5 224.165c-2.907.779-10.997 6.728-14.304 12.263l-4.22 7.03A27.56 27.56 0 0 0 19 257.775v3.538c0 3.094 2.531 5.625 5.625 5.625H41.5c3.094 0 5.625-2.53 5.625-5.625v-16.875c0-3.093 2.833-5.625 5.625-5.625.585 0-10.106-14.954-11.25-14.647" style="display:inline;fill:#63452c;stroke-width:5.625" transform="translate(526 264.5)"/><path fill="#222" d="M80.875 221.938H109v-16.875h-5.625l-5.625 5.625H80.875v-5.625z" style="display:inline;fill:#deddda;fill-opacity:1;stroke-width:5.625" transform="translate(526 263.5)"/><path fill="#222" d="M52.75 238.813s1.662 9.341 11.25 11.25v-11.25Z" style="display:inline;fill:url(#bw);fill-opacity:1;stroke-width:5.625" transform="translate(526 263.5)"/><path fill="#222" d="M47.125 216.273a5.625 5.625 0 0 0-5.625-5.58H24.625v5.625h11.25c3.094 0 5.625 2.531 5.625 5.625v2.222l5.625 6.648z" style="display:inline;fill:#deddda;fill-opacity:1;stroke-width:5.625" transform="translate(526 263.5)"/><path d="m80.875 205.063-33.75.006v11.205c-.006-.702-.008.078-.01 1.703a5.625 5.625 0 0 0-5.615-5.283H24.625v3.625h11.25c3.094 0 5.625 2.53 5.625 5.625v2.22l5.62 6.64.005 8.009h33.75v-16.875H109v-14.875h-5.625l-5.625 5.625H80.875v-2zm-22.5 5.63H75.25v5.625H58.375Zm0 11.25H75.25v5.625H58.375Z" style="display:inline;fill:url(#bx);stroke-width:5.625" transform="translate(526 263.5)"/><path fill="#222" d="M41.5 224.165c-2.907.779-10.997 6.728-14.304 12.263l-4.22 7.03A27.56 27.56 0 0 0 19 257.775v3.538c0 3.094 2.531 5.625 5.625 5.625H41.5c3.094 0 5.625-2.53 5.625-5.625v-16.875c0-3.093 2.833-5.625 5.625-5.625.585 0-10.106-14.954-11.25-14.647" style="display:inline;fill:url(#by);stroke-width:5.625" transform="translate(526 263.5)"/><path fill="#222" d="M40.17 229.23c-2.218.595-8.391 5.135-10.916 9.358l-3.22 5.366A21.03 21.03 0 0 0 23 254.878v2.7a4.305 4.305 0 0 0 4.293 4.293H40.17a4.305 4.305 0 0 0 4.293-4.292V244.7c0-2.361 2.162-6.293 4.293-6.293.446 0-7.713-9.412-8.586-9.178" style="display:inline;fill:url(#bz);fill-opacity:1;stroke-width:4.29258" transform="translate(526 263.5)"/><path d="M55.938 221.946h20v5.679h-20Z" style="display:inline;fill:url(#bA);stroke-width:.475657" transform="translate(526 263.5)"/><path d="M75.938 216.325h-20v-5.679h20z" style="display:inline;fill:url(#bB);stroke-width:.475657" transform="translate(526 263.5)"/><g style="display:inline" transform="translate(471.958 228.098)"><ellipse cx="86.202" cy="290.53" rx="2.727" ry="2.689" style="display:inline;fill:#deddda;fill-opacity:1;stroke-width:28.8461;stroke-linecap:round;stroke-linejoin:round"/><ellipse cx="86.202" cy="290.263" rx="2.727" ry="2.689" style="display:inline;fill:#f6f5f4;fill-opacity:1;stroke-width:28.8461;stroke-linecap:round;stroke-linejoin:round"/><ellipse cx="86.202" cy="289.933" rx="2.727" ry="2.689" style="display:inline;fill:url(#bC);fill-opacity:1;stroke-width:28.8461;stroke-linecap:round;stroke-linejoin:round"/></g><path d="M75.938 216.325h-20v-5.679h20z" style="display:inline;fill:url(#bD);stroke-width:.475657" transform="translate(526 263.5)"/></g></g><g style="display:inline" transform="translate(-1.51 -411.497)"><circle cx="499" cy="566" r="53" style="display:inline;fill:#e5a50a;fill-opacity:.3;stroke-width:.711596" transform="translate(-39 -66)"/><g fill="#222" style="display:inline"><path d="M69.739 191.5a8.431 8.431 0 1 0 0 16.862 8.431 8.431 0 0 0 0-16.862m-14.052 22.483a3.9 3.9 0 0 0-1.888.46l-11.242 5.621a4.2 4.2 0 0 0-1.888 1.866l-5.621 11.242a4.23 4.23 0 0 0 1.888 5.665 4.216 4.216 0 0 0 5.644-1.888l5.002-9.988 8.785-4.35c-.242.415-4.08 15.94-4.08 15.94-1.293 5.34 2.237 8.566 2.237 8.566l18.84 15.192 5.092 15.277a5.626 5.626 0 0 0 10.669-3.552l-5.621-16.862a5.6 5.6 0 0 0-1.821-2.614l-11.242-8.982 3.822-15.26 1.383 3.513a4.3 4.3 0 0 0 2.895 2.53l11.241 2.81a4.227 4.227 0 0 0 2.046-8.195l-9.134-2.282-4.833-12.05a4.22 4.22 0 0 0-3.907-2.66zm-6.542 35.567-3.997 11.967-10.297 10.32a5.62 5.62 0 1 0 7.948 7.947l11.241-11.241q.928-.933 1.36-2.192l3.052-9.162zm0 0" style="display:inline;fill:url(#bE);stroke-width:5.62069" transform="translate(397.391 269.62)scale(.97826)"/><path d="M69.739 189.5a8.431 8.431 0 1 0 0 16.862 8.431 8.431 0 0 0 0-16.862m-14.052 22.483a3.9 3.9 0 0 0-1.888.46l-11.242 5.621a4.2 4.2 0 0 0-1.888 1.866l-5.621 11.242a4.23 4.23 0 0 0 1.888 5.665 4.216 4.216 0 0 0 5.644-1.888l5.002-9.988 8.785-4.35c-.242.415-4.08 15.94-4.08 15.94-1.293 5.34 2.237 8.565 2.237 8.565l18.84 15.193 5.092 15.277a5.626 5.626 0 0 0 10.669-3.552l-5.621-16.862a5.6 5.6 0 0 0-1.821-2.614l-11.242-8.982 3.822-15.26 1.383 3.513a4.3 4.3 0 0 0 2.895 2.53l11.241 2.81a4.227 4.227 0 0 0 2.046-8.195l-9.134-2.282-4.833-12.05a4.22 4.22 0 0 0-3.907-2.66zm-6.542 35.567-3.997 11.967-10.297 10.32a5.62 5.62 0 1 0 7.948 7.947l11.241-11.241q.928-.933 1.36-2.192l3.052-9.162zm0 0" style="display:inline;fill:url(#bF);stroke-width:5.62069" transform="translate(397.391 269.62)scale(.97826)"/></g></g><g style="display:inline" transform="translate(-1.51 47.497)"><circle cx="460" cy="500" r="53" style="display:inline;fill:#f6f5f4;fill-opacity:.3;stroke-width:.711596"/><g fill="#222" style="display:inline"><path d="M50.178 193.82a14.062 14.066 0 0 0-10.372 4.09 5.737 5.739 0 0 0-1.541 5.492 5.625 5.627 0 0 0 9.511 2.464 2.734 2.734 0 0 1 3.364-.445c1.125.636 1.631 1.913 1.294 3.168a2.73 2.73 0 0 1-2.7 2.082H19v11.253h30.734a14.084 14.089 0 0 0 13.578-10.437 14.096 14.1 0 0 0-6.547-15.8 14.062 14.066 0 0 0-6.587-1.867m38.08 5.626a19.822 19.828 0 0 0-18.225 15.557 5.63 5.632 0 0 0 11.014 2.352 8.38 8.383 0 0 1 9.427-6.61 8.38 8.383 0 0 1 7.25 8.962 8.353 8.355 0 0 1-8.414 7.855H19v11.253h70.31a19.765 19.772 0 0 0 19.641-18.331c.726-10.263-6.727-19.429-16.919-20.88a19.687 19.693 0 0 0-3.78-.152M19 244.436v11.253h56.248a5.569 5.57 0 0 1 5.467 4.332 5.569 5.57 0 0 1-2.942 6.324 5.569 5.57 0 0 1-6.811-1.406 5.625 5.626 0 1 0-8.634 7.213 16.987 16.992 0 0 0 9.511 5.688 16.874 16.88 0 0 0 10.985-1.451 16.874 16.88 0 0 0 8.831-18.962 16.897 16.902 0 0 0-16.407-13.002zm0 0" style="display:inline;fill:url(#bG);stroke-width:5.62562" transform="translate(396 265)"/><path d="M50.178 191.82a14.062 14.066 0 0 0-10.372 4.09 5.737 5.739 0 0 0-1.541 5.492 5.625 5.627 0 0 0 9.511 2.464 2.734 2.734 0 0 1 3.364-.445c1.125.636 1.631 1.913 1.294 3.168a2.73 2.73 0 0 1-2.7 2.082H19v11.253h30.734a14.084 14.089 0 0 0 13.578-10.437 14.096 14.1 0 0 0-6.547-15.8 14.062 14.066 0 0 0-6.587-1.867m38.08 5.626a19.822 19.828 0 0 0-18.225 15.557 5.63 5.632 0 0 0 11.014 2.352 8.38 8.383 0 0 1 9.427-6.61 8.38 8.383 0 0 1 7.25 8.962 8.353 8.355 0 0 1-8.414 7.855H19v11.253h70.31a19.765 19.772 0 0 0 19.641-18.331c.726-10.263-6.727-19.429-16.919-20.88a19.687 19.693 0 0 0-3.78-.152M19 242.436v11.253h56.248a5.569 5.57 0 0 1 5.467 4.332 5.569 5.57 0 0 1-2.942 6.324 5.569 5.57 0 0 1-6.811-1.406 5.625 5.626 0 1 0-8.634 7.213 16.987 16.992 0 0 0 9.511 5.688 16.874 16.88 0 0 0 10.985-1.451 16.874 16.88 0 0 0 8.831-18.962 16.897 16.902 0 0 0-16.407-13.002zm0 0" style="display:inline;fill:url(#bH);stroke-width:5.62562" transform="translate(396 265)"/></g></g><g style="display:inline" transform="translate(-50.026 78.974)"><circle cx="242.5" cy="765.603" r="53" style="display:inline;fill:#99c1f1;fill-opacity:.3;stroke-width:.711596" transform="translate(87.5 -265.603)"/><g fill="#222" style="display:inline"><path d="m64 190-26.25 45.492a2 2 0 0 1-.117.187v.024A29.86 29.86 0 0 0 34 250c0 16.57 13.43 30 30 30s30-13.43 30-30a30.1 30.1 0 0 0-3.68-14.32h.048zm0 0" style="fill:url(#bI);stroke-width:6.00001" transform="translate(266 265.5)"/><path d="m64 189-26.25 45.492a2 2 0 0 1-.117.187v.024A29.86 29.86 0 0 0 34 249c0 16.57 13.43 30 30 30s30-13.43 30-30a30.1 30.1 0 0 0-3.68-14.32h.048zm0 0" style="display:inline;fill:url(#bJ);stroke-width:6.00001" transform="translate(266 265.5)"/><path d="m64 198-20.417 35.383c-.018.037-.054.09-.09.145v.02a23.2 23.2 0 0 0-2.826 11.119C40.667 257.555 51.112 268 64 268s23.333-10.445 23.333-23.333a23.4 23.4 0 0 0-2.862-11.138h.038zm0 0" style="display:inline;fill:url(#bK);stroke-width:4.66666" transform="translate(266 265.5)"/></g></g><g style="display:inline" transform="translate(-77.011 -352.339)"><circle cx="270.683" cy="622.5" r="53" style="display:inline;fill:#c64600;fill-opacity:.3;stroke-width:.711596" transform="translate(-70.683 -122.5)"/><g fill="#222" style="display:inline"><path d="M68.158 192c-27.746 13.734-23.617 34.01-14.334 51.504-8.13-10.527-13.027-22.582-13.13-32.08C30.026 217.84 21 230.672 21 243.504 21 264.757 38.643 282 60.388 282c32.824 0 52.518-35.063 26.849-59.8C61.004 196.938 68.158 192 68.158 192m0 0" style="display:inline;fill:url(#bL);stroke-width:6.48995" transform="matrix(1 0 0 .98901 140 266.099)"/><path d="M68.158 191c-27.746 13.734-23.617 34.01-14.334 51.504-8.13-10.527-13.027-22.582-13.13-32.08C30.026 216.84 21 229.672 21 242.504 21 263.757 38.643 281 60.388 281c32.824 0 52.518-35.063 26.849-59.8C61.004 195.938 68.158 191 68.158 191m0 0" style="display:inline;fill:url(#bM);stroke-width:6.48995" transform="matrix(1 0 0 .98901 140 266.099)"/><path d="M55.607 231c14.94 7.63 12.717 18.894 7.719 28.613 4.377-5.848 7.014-12.545 7.07-17.822C76.14 245.355 81 252.484 81 259.613 81 271.42 71.5 281 59.79 281c-17.673 0-28.278-19.48-14.456-33.222C59.46 233.743 55.607 231 55.607 231m0 0" style="display:inline;fill:url(#bN);stroke-width:3.54963" transform="matrix(1 0 0 .98901 140 266.099)"/></g></g><g style="display:inline" transform="translate(505.01 -272.635)"><circle cx="499" cy="566" r="53" style="display:inline;fill:#f9f06b;fill-opacity:.3;stroke-width:.711596" transform="translate(-429 -66)"/><g style="display:inline" transform="translate(11.766 277.975)scale(.88234)"><path d="M19.749 241.65c12.669-10.904 31.744 4.343 47.692 4.293 14.915-.046 32.848-14.658 44.582-4.293 4.85 4.285 2.851 13.631 2.851 20.571s2.38 16.036-2.851 20.571c-11.75 10.188-31.104-.209-46.656-.208-15.206 0-34.02 10.043-45.618.208-5.39-4.57-3.39-13.839-3.37-20.928.019-6.856-1.468-16.05 3.37-20.214z" style="display:inline;fill:url(#bO);fill-opacity:1;fill-rule:evenodd;stroke:url(#bP);stroke-width:2;stroke-linecap:square;stroke-linejoin:round;stroke-dasharray:none;paint-order:stroke fill markers"/><path d="M20.63 221.107c12.212-10.346 31.978-1.775 47.984-1.751 14.775.023 33.192-8.003 44.29 1.75 4.261 3.745 2.851 11.084 2.851 16.778s1.483 13.118-2.851 16.778c-11.808 9.97-30.91 0-46.364 0-15.303 0-34.088 9.717-45.91 0-4.481-3.682-3.39-11.24-3.37-17.07.019-5.638-.91-12.86 3.37-16.485z" style="fill:url(#bQ);fill-rule:evenodd;stroke:url(#bR);stroke-width:2;stroke-linecap:square;stroke-linejoin:round;stroke-dasharray:none;stroke-opacity:1;paint-order:stroke fill markers"/><circle cx="23.004" cy="276.324" r="2" style="fill:#c78f09;fill-opacity:1;fill-rule:evenodd;stroke-width:.471405;stroke-linecap:square;stroke-linejoin:round;paint-order:stroke fill markers"/><circle cx="34.532" cy="279.021" r="2" style="display:inline;fill:#c78f09;fill-opacity:1;fill-rule:evenodd;stroke-width:.471405;stroke-linecap:square;stroke-linejoin:round;paint-order:stroke fill markers"/><circle cx="55" cy="274.25" r="2" style="display:inline;fill:#c78f09;fill-opacity:1;fill-rule:evenodd;stroke-width:.471405;stroke-linecap:square;stroke-linejoin:round;paint-order:stroke fill markers"/><circle cx="106.25" cy="281" r="2" style="display:inline;fill:#c78f09;fill-opacity:1;fill-rule:evenodd;stroke-width:.471405;stroke-linecap:square;stroke-linejoin:round;paint-order:stroke fill markers"/><circle cx="29.995" cy="269.525" r="2" style="display:inline;fill:#c78f09;fill-opacity:1;fill-rule:evenodd;stroke-width:.471405;stroke-linecap:square;stroke-linejoin:round;paint-order:stroke fill markers"/><circle cx="23.722" cy="247.358" r="2" style="display:inline;fill:#c78f09;fill-opacity:1;fill-rule:evenodd;stroke-width:.471405;stroke-linecap:square;stroke-linejoin:round;paint-order:stroke fill markers"/><circle cx="31.471" cy="253.139" r="2" style="display:inline;fill:#c78f09;fill-opacity:1;fill-rule:evenodd;stroke-width:.471405;stroke-linecap:square;stroke-linejoin:round;paint-order:stroke fill markers"/><circle cx="43.339" cy="247.632" r="2" style="display:inline;fill:#c78f09;fill-opacity:1;fill-rule:evenodd;stroke-width:.471405;stroke-linecap:square;stroke-linejoin:round;paint-order:stroke fill markers"/><circle cx="53.734" cy="251.707" r="2" style="display:inline;fill:#c78f09;fill-opacity:1;fill-rule:evenodd;stroke-width:.471405;stroke-linecap:square;stroke-linejoin:round;paint-order:stroke fill markers"/><circle cx="46.604" cy="222.643" r="2" style="display:inline;fill:#c78f09;fill-opacity:1;fill-rule:evenodd;stroke-width:.471405;stroke-linecap:square;stroke-linejoin:round;paint-order:stroke fill markers"/><circle cx="57.148" cy="225.214" r="2" style="display:inline;fill:#c78f09;fill-opacity:1;fill-rule:evenodd;stroke-width:.471405;stroke-linecap:square;stroke-linejoin:round;paint-order:stroke fill markers"/><circle cx="107.718" cy="249.242" r="2" style="display:inline;fill:#c78f09;fill-opacity:1;fill-rule:evenodd;stroke-width:.471405;stroke-linecap:square;stroke-linejoin:round;paint-order:stroke fill markers"/><circle cx="94.04" cy="253.389" r="2" style="display:inline;fill:#c78f09;fill-opacity:1;fill-rule:evenodd;stroke-width:.471405;stroke-linecap:square;stroke-linejoin:round;paint-order:stroke fill markers"/><circle cx="106.44" cy="223.444" r="2" style="display:inline;fill:#c78f09;fill-opacity:1;fill-rule:evenodd;stroke-width:.471405;stroke-linecap:square;stroke-linejoin:round;paint-order:stroke fill markers"/><circle cx="97.075" cy="228.984" r="2" style="display:inline;fill:#c78f09;fill-opacity:1;fill-rule:evenodd;stroke-width:.471405;stroke-linecap:square;stroke-linejoin:round;paint-order:stroke fill markers"/><circle cx="87.967" cy="223.459" r="2" style="display:inline;fill:#c78f09;fill-opacity:1;fill-rule:evenodd;stroke-width:.471405;stroke-linecap:square;stroke-linejoin:round;paint-order:stroke fill markers"/><circle cx="94.36" cy="272.2" r="2" style="display:inline;fill:#c78f09;fill-opacity:1;fill-rule:evenodd;stroke-width:.471405;stroke-linecap:square;stroke-linejoin:round;paint-order:stroke fill markers"/><circle cx="84.313" cy="278.419" r="2" style="display:inline;fill:#c78f09;fill-opacity:1;fill-rule:evenodd;stroke-width:.471405;stroke-linecap:square;stroke-linejoin:round;paint-order:stroke fill markers"/></g></g><g style="display:inline" transform="translate(120.48 77.18)scale(1.02377)"><circle cx="499" cy="566" r="53" style="display:inline;fill:#ed333b;fill-opacity:.3;stroke-width:.711596" transform="translate(-331.624 -572.544)scale(.97678)"/><path d="m150.345-21.432-1.329 2.027 12.61.434 1.769-2.556z" style="opacity:.4;fill:url(#bS);stroke-width:5.3688"/><path d="M146.141-31.079v10.721h48.243a5.35 5.35 0 0 0 5.361-5.36v-5.36h-48.243z" style="fill:url(#bT);fill-opacity:1;stroke-width:5.3688"/><path d="M146.141-32.188v10.72h48.244c2.97 0 5.36-2.39 5.36-5.36v-5.36h-48.243z" style="fill:url(#bU);fill-opacity:1;stroke-width:5.3688"/><path d="M128.988-54.664a17.153 17.153 0 0 0-17.153 17.153 17.153 17.153 0 0 0 17.153 17.153h17.153v-17.153a17.153 17.153 0 0 0-17.153-17.153m0 8.576a8.577 8.577 0 0 1 8.577 8.577 8.577 8.577 0 0 1-8.577 8.576 8.577 8.577 0 0 1-8.577-8.576 8.577 8.577 0 0 1 8.577-8.577" style="fill:#a51d2d;fill-opacity:1;stroke-width:5.72673"/><path d="M158.683-32.188h-1.812l-8.05 11.83h1.822z" style="opacity:.05;fill:#000;fill-opacity:1;stroke-width:5.3688"/><path d="m157.066-10.416-4.437-3.007-4.437-3.008 3.007-4.437 7.613-11.232 16.448-24.265a5.35 5.35 0 0 1 7.444-1.43l4.438 3.007-3.008 4.438-16.447 24.265-7.613 11.232z" style="display:inline;fill:url(#bV);fill-opacity:1;stroke-width:5.3688"/><path d="m156.233-10.98-4.438-3.008-4.437-3.008 3.008-4.437 7.613-11.232 16.447-24.265a5.35 5.35 0 0 1 7.445-1.43l4.437 3.008-3.007 4.437-16.448 24.265-7.613 11.232z" style="display:inline;fill:url(#bW);fill-opacity:1;stroke-width:5.3688"/><path d="M128.988-55.774a17.153 17.153 0 0 0-17.153 17.153 17.153 17.153 0 0 0 17.153 17.153h17.153V-38.62a17.153 17.153 0 0 0-17.153-17.153m0 8.577a8.577 8.577 0 0 1 8.577 8.576 8.577 8.577 0 0 1-8.577 8.577 8.577 8.577 0 0 1-8.577-8.577 8.577 8.577 0 0 1 8.577-8.576" style="fill:#ed333b;fill-opacity:1;stroke-width:5.72673"/><path d="M167.159 16.275a17.2 17.2 0 0 1-23.888 4.587 17.2 17.2 0 0 1-4.587-23.888l9.65-14.237 6.915 4.687 2.577 1.746 4.745 3.217a17.2 17.2 0 0 1 4.588 23.888m-7.12-4.826a8.6 8.6 0 0 0-2.293-11.943 8.6 8.6 0 0 0-11.944 2.293 8.6 8.6 0 0 0 2.294 11.944 8.6 8.6 0 0 0 11.944-2.294" style="fill:#a51d2d;fill-opacity:1;stroke-width:5.74227"/><path d="M167.159 15.103a17.2 17.2 0 0 1-23.888 4.587 17.2 17.2 0 0 1-4.587-23.888l9.65-14.237 6.915 4.687 2.577 1.746 4.745 3.217a17.2 17.2 0 0 1 4.588 23.888m-7.12-4.826a8.6 8.6 0 0 0-2.293-11.943A8.6 8.6 0 0 0 145.802.627a8.6 8.6 0 0 0 2.294 11.944 8.6 8.6 0 0 0 11.944-2.294" style="fill:#ed333b;fill-opacity:1;stroke-width:5.74227"/><ellipse cx="160.498" cy="-26.537" rx="2.664" ry="2.627" style="display:inline;fill:#deddda;fill-opacity:1;stroke-width:28.1763;stroke-linecap:round;stroke-linejoin:round"/><ellipse cx="160.498" cy="-26.798" rx="2.664" ry="2.627" style="display:inline;fill:#f6f5f4;fill-opacity:1;stroke-width:28.1763;stroke-linecap:round;stroke-linejoin:round"/><ellipse cx="160.498" cy="-27.119" rx="2.664" ry="2.627" style="display:inline;fill:url(#bX);fill-opacity:1;stroke-width:28.1763;stroke-linecap:round;stroke-linejoin:round"/></g><g style="display:inline" transform="translate(516.958 197.001)scale(.89109)"><circle cx="242.5" cy="765.603" r="53" style="display:inline;fill:#dc8add;fill-opacity:.3;stroke-width:.711596" transform="translate(-206.993 -621.677)scale(1.12222)"/><g style="display:inline;fill:url(#bY)" transform="translate(-15.294 -43.765)scale(1.17647)"><path d="M43.99 197a5.3 5.3 0 0 0-.839.063 5.4 5.4 0 0 0-.797.183 5.46 5.46 0 0 0-3.424 3.103 5.45 5.45 0 0 0-.43 2.14v74.022a5.7 5.7 0 0 0 .111 1.11 5.46 5.46 0 0 0 4.815 4.351 5 5 0 0 0 .564.028h48.769q.143 0 .283-.006.14-.007.28-.022a6 6 0 0 0 .545-.082 5.46 5.46 0 0 0 3.72-2.758 5.46 5.46 0 0 0 .654-2.337 6 6 0 0 0 .008-.284v-53.82L72.309 197Z" style="display:inline;fill:url(#bZ);fill-opacity:1;stroke-width:.344528"/><path d="M71.385 197.29v1.463h.004l.096 22.77h-.001a2.497 2.497 0 0 0 2.497 2.485h24.12v-1.127h-1.319l-22.585-22.755-1.687-1.7v-1.135z" style="opacity:.5;mix-blend-mode:normal;fill:url(#ca);fill-opacity:1;stroke-width:.622557;stroke-dasharray:none"/><path d="M137.399 121.706v-12.778l13.836 13.837h-12.778a1.06 1.06 45 0 1-1.058-1.059" style="fill:url(#cb);fill-opacity:1;stroke-width:.336616;stroke-dasharray:none" transform="translate(-182.102 -4.492)scale(1.85307)"/></g><g style="display:inline"><path d="M43.99 197a5.3 5.3 0 0 0-.839.063 5.4 5.4 0 0 0-.797.183 5.46 5.46 0 0 0-3.424 3.103 5.45 5.45 0 0 0-.43 2.14v74.022a5.7 5.7 0 0 0 .111 1.11 5.46 5.46 0 0 0 4.815 4.351 5 5 0 0 0 .564.028h48.769q.143 0 .283-.006.14-.007.28-.022a6 6 0 0 0 .545-.082 5.46 5.46 0 0 0 3.72-2.758 5.46 5.46 0 0 0 .654-2.337 6 6 0 0 0 .008-.284v-53.82L72.309 197Z" style="display:inline;fill:url(#cc);fill-opacity:1;stroke-width:.344528" transform="translate(-15.294 -44.765)scale(1.17647)"/><path d="M71.385 197.29v1.463h.004l.096 22.77h-.001a2.497 2.497 0 0 0 2.497 2.485h24.12v-1.127h-1.319l-22.585-22.755-1.687-1.7v-1.135z" style="opacity:.5;mix-blend-mode:normal;fill:url(#cd);fill-opacity:1;stroke-width:.622557;stroke-dasharray:none" transform="translate(-15.294 -44.765)scale(1.17647)"/><path d="M137.399 121.706v-12.778l13.836 13.837h-12.778a1.06 1.06 45 0 1-1.058-1.059" style="fill:url(#ce);fill-opacity:1;stroke-width:.336616;stroke-dasharray:none" transform="translate(-229.531 -50.05)scale(2.18008)"/></g></g><g style="display:inline" transform="matrix(.9 0 0 .9 .69 106.503)"><circle cx="270.683" cy="622.5" r="53" style="display:inline;fill:#3584e4;fill-opacity:.3;stroke-width:.711596" transform="translate(-233.76 -456.672)scale(1.11112)"/><g style="fill:url(#cf);fill-opacity:1" transform="translate(41.806 -110.488)"><path d="M.521 308.488a6.19 6.19 0 0 0-5.07 2.62l-.218.331c-.01.018-.034.05-.044.069l79.999 34.791-.003.044a6.4 6.4 0 0 0-.865-3.555l-18.627-31.249a6.23 6.23 0 0 0-5.37-3.05z" style="display:inline;fill:url(#cg);fill-opacity:1;stroke-width:6.24953"/><path d="m-4.8 311.49-19.09 31.249a6.21 6.21 0 0 0 0 6.493l19.154 31.355 79.922-34.244.002-.052z" style="display:inline;fill:url(#ch);fill-opacity:1;stroke-width:6.24953"/><path d="m75.188 346.3-79.989 34.18a6.19 6.19 0 0 0 5.322 3.003h49.801a6.23 6.23 0 0 0 5.37-3.053l18.628-31.247c.53-.895.818-1.885.868-2.884" style="display:inline;fill:url(#ci);fill-opacity:1;stroke-width:6.24953"/></g><path d="M42.328 197a6.19 6.19 0 0 0-5.071 2.619l-.217.332-.045.068 80 34.792-.003.044a6.4 6.4 0 0 0-.866-3.556L97.5 200.051A6.23 6.23 0 0 0 92.13 197Z" style="display:inline;fill:#99c1f1;fill-opacity:1;stroke-width:6.24953"/><path d="m37.006 200.002-19.09 31.248a6.21 6.21 0 0 0 0 6.493l19.155 31.355 79.921-34.243.002-.053z" style="display:inline;fill:#3584e4;fill-opacity:1;stroke-width:6.24953"/><path d="m116.994 234.81-79.988 34.181a6.19 6.19 0 0 0 5.322 3.003h49.8a6.23 6.23 0 0 0 5.371-3.052l18.627-31.248a6.26 6.26 0 0 0 .868-2.883" style="display:inline;fill:#1a5fb4;fill-opacity:1;stroke-width:6.24953"/></g></g></svg>