<svg xmlns="http://www.w3.org/2000/svg" xmlns:xlink="http://www.w3.org/1999/xlink" width="128" height="128"><filter id="d" width="100%" height="100%" x="0%" y="0%"><feColorMatrix color-interpolation-filters="sRGB" values="0 0 0 0 1 0 0 0 0 1 0 0 0 0 1 0 0 0 1 0"/></filter><linearGradient id="f" x1="65.01" x2="65.01" y1="-6.061" y2="68.938" gradientUnits="userSpaceOnUse"><stop offset="0" stop-color="#3584e4"/><stop offset="1" stop-color="#0a274d"/></linearGradient><linearGradient id="g" x1="95" x2="95" y1="26.012" y2="86.992" gradientUnits="userSpaceOnUse"><stop offset="0" stop-color="#ff7800"/><stop offset="1"/></linearGradient><linearGradient id="h" x1="95" x2="95" y1="25.14" y2="86.12" gradientUnits="userSpaceOnUse"><stop offset="0" stop-color="#ffa348"/><stop offset="1" stop-color="#c64600"/></linearGradient><linearGradient id="i" x1="105.063" x2="105.063" y1="23.58" y2="28.813" gradientUnits="userSpaceOnUse"><stop offset="0" stop-color="#241f31"/><stop offset="1"/></linearGradient><linearGradient id="j" x1="105.063" x2="105.063" y1="23.362" y2="28.595" gradientUnits="userSpaceOnUse"><stop offset="0" stop-color="#241f31"/><stop offset="1" stop-color="#63452c"/></linearGradient><linearGradient id="l" x1="34.267" x2="34.267" y1="26.712" y2="90.226" gradientUnits="userSpaceOnUse"><stop offset="0" stop-color="#8ff0a4"/><stop offset="1" stop-color="#13462e"/></linearGradient><linearGradient id="n" x1="34.267" x2="34.267" y1="25.906" y2="89.42" gradientUnits="userSpaceOnUse"><stop offset="0" stop-color="#57e389"/><stop offset="1" stop-color="#26a269"/></linearGradient><linearGradient id="a" gradientUnits="userSpaceOnUse"><stop offset="0" stop-color="#9141ac"/><stop offset="1" stop-color="#1d1628"/></linearGradient><linearGradient xlink:href="#a" id="o" x1="19.445" x2="19.445" y1="47.358" y2="69.145"/><linearGradient id="b" gradientUnits="userSpaceOnUse"><stop offset="0" stop-color="#9141ac"/><stop offset="1" stop-color="#241f31"/></linearGradient><linearGradient xlink:href="#b" id="p" x1="19.445" x2="19.445" y1="46.553" y2="68.339"/><linearGradient xlink:href="#a" id="r" x1="48.849" x2="48.849" y1="47.358" y2="69.145"/><linearGradient xlink:href="#b" id="s" x1="48.849" x2="48.849" y1="46.553" y2="68.339"/><linearGradient id="c" gradientUnits="userSpaceOnUse"><stop offset="0" stop-color="#9141ac"/><stop offset="1" stop-color="#613583"/></linearGradient><linearGradient xlink:href="#c" id="t" x1="89.129" x2="89.129" y1="67.769" y2="113.007"/><mask id="u"><g filter="url(#d)"><path fill-opacity=".5" d="M-12.8-12.8h153.6v153.6H-12.8z"/></g></mask><linearGradient xlink:href="#c" id="w" x1="97.129" x2="97.129" y1="83.769" y2="129.007"/><clipPath id="v"><path d="M0 0h192v152H0z"/></clipPath><linearGradient xlink:href="#c" id="x" x1="-4.584" x2="-4.584" y1="199.762" y2="283.591"/><linearGradient id="y" x1="89.129" x2="89.129" y1="67.125" y2="112.363" gradientUnits="userSpaceOnUse"><stop offset="0" stop-color="#dc8add"/><stop offset="1" stop-color="#c061cb"/></linearGradient><mask id="z"><g filter="url(#d)"><path fill-opacity=".5" d="M-12.8-12.8h153.6v153.6H-12.8z"/></g></mask><linearGradient id="B" x1="109.522" x2="109.522" y1="73.786" y2="94.014" gradientUnits="userSpaceOnUse"><stop offset="0" stop-color="#c061cb"/><stop offset="1" stop-color="#3d3846"/></linearGradient><clipPath id="A"><path d="M0 0h192v152H0z"/></clipPath><linearGradient id="C" x1="92.258" x2="111.672" y1="67.544" y2="67.544" gradientUnits="userSpaceOnUse"><stop offset="0" stop-color="#dc8add"/><stop offset="1" stop-color="#9141ac"/></linearGradient><mask id="D"><g filter="url(#d)"><path fill-opacity=".4" d="M-12.8-12.8h153.6v153.6H-12.8z"/></g></mask><linearGradient id="G" x1="6" x2="6.445" y1="6.5" y2="6.5" gradientTransform="scale(-4.0203 4.0203)rotate(89.772 -13.307 7.44)" gradientUnits="userSpaceOnUse"><stop offset="0"/><stop offset="1" stop-color="#4d4d4d" stop-opacity="0"/></linearGradient><clipPath id="F"><path d="M0 0h192v152H0z"/></clipPath><linearGradient id="e" gradientUnits="userSpaceOnUse"><stop offset="0" stop-color="#deddda"/><stop offset="1" stop-color="#c0bfbc"/></linearGradient><linearGradient xlink:href="#e" id="H" x1="34.24" x2="74.443" y1="87.445" y2="87.445"/><mask id="I"><g filter="url(#d)"><path fill-opacity=".05" d="M-12.8-12.8h153.6v153.6H-12.8z"/></g></mask><clipPath id="J"><path d="M0 0h192v152H0z"/></clipPath><linearGradient xlink:href="#e" id="K" x1="38.481" x2="61.663" y1="97.075" y2="64.22"/><linearGradient id="L" x1="43.01" x2="47.006" y1="87.226" y2="87.226" gradientUnits="userSpaceOnUse"><stop offset="0" stop-color="#fff"/><stop offset="1" stop-color="#f6f5f4"/></linearGradient><path fill="url(#f)" d="M46.508 3.316a4.64 4.64 0 0 0-3.805 1.965l-.164.246-.031.055 60 26.094-.004.031a4.8 4.8 0 0 0-.649-2.668L87.883 5.605a4.66 4.66 0 0 0-4.028-2.289zm0 0"/><path fill="url(#f)" d="m42.516 5.566-14.32 23.438a4.67 4.67 0 0 0 0 4.871l14.367 23.516 59.94-25.684.005-.039zm0 0"/><path fill="url(#f)" d="M102.508 31.676 42.516 57.309a4.63 4.63 0 0 0 3.992 2.254h37.347a4.67 4.67 0 0 0 4.028-2.29l13.972-23.437a4.7 4.7 0 0 0 .653-2.16m0 0"/><path fill="#99c1f1" d="M46.508 2.566a4.64 4.64 0 0 0-3.805 1.965l-.164.246-.031.055 60 26.094-.004.031a4.8 4.8 0 0 0-.649-2.668L87.883 4.855a4.66 4.66 0 0 0-4.028-2.289zm0 0"/><path fill="#3584e4" d="m42.516 4.816-14.32 23.438a4.67 4.67 0 0 0 0 4.871l14.367 23.516 59.94-25.684v-.039zm0 0"/><path fill="#1a5fb4" d="M102.508 30.926 42.516 56.559a4.63 4.63 0 0 0 3.992 2.254h37.347a4.67 4.67 0 0 0 4.028-2.29l13.972-23.437a4.7 4.7 0 0 0 .653-2.16m0 0"/><g fill-rule="evenodd"><path fill="url(#g)" d="M123.79 83.664c-.84.527-4.821 2.906-6.985 3.371-2.106.453-8.653.453-11.63-.883-5.046-2.261-9.792-11.43-9.343-13.71.207-1.044 4.152-3.536 5.484-3.352 1.965.27 1.364 3.785 2.54 5.383 2.042 2.78 4.726 8.894 7.617 7.007 2.945-1.918-1.422-5.585-1.422-5.585s6.375 2.605 6.297-1.727c-.032-1.785-5.078-1.727-5.078-1.727s4.57-2.015 2.843-4.367c-1.34-1.824-6.601 1.625-6.601 1.625s-.602-5.433-2.64-6.703c-2.075-1.289-7.313.61-7.313.61l3.656-11.782s4.25 4.735 7.008 4.469c3.578-.34 7.82-7.414 7.82-7.414s6.012-.012 5.992-2.54c-.023-3.116-5.078-1.421-5.078-1.421s2.254-4.344.102-5.484c-2.051-1.09-3.961 4.265-3.961 4.265s-2.063-3.633-3.961-2.133c-1.758 1.391 1.32 5.18 1.32 5.18s-1.137 3.063-2.437 3.047c-1.786-.02-2.907-2.512-3.25-4.266-.442-2.273.19-5.066 1.828-6.703 2.941-2.937 5.449-2.328 7.617-4.265 2.77-2.473 6.113-5.852 6.5-9.04.183-1.503-.653-3.206-1.828-4.164-2.012-1.64-5.028-1.406-7.617-1.625-3.141-.261-6.477-.652-9.446.407-2.39.855-4.668 2.468-6.094 4.57-2.043 3.02-1.449 7.93-2.843 10.563-.817 1.546-2.785 2.27-4.469 2.742-1.106.312-2.695.867-3.453 0-.492-.567.305-2.235.305-2.235s6.48-3.37 4.468-5.789c-1.707-2.05-4.773 1.828-4.773 1.828s.535-5.562-2.438-5.382c-2.527.152-1.422 5.484-1.422 5.484s-3.804-2.508-4.875-1.219c-1.933 2.336 3.961 5.281 3.961 5.281s-.984 4.891.407 6.602c1.129 1.39 5.18 1.422 5.18 1.422s-2.446 6.32-3.16 9.566c-.766 3.489-1.005 10.137-1.005 10.137s-4.925-3.121-6.804-1.727c-2.856 2.122-1.422 8.024-1.422 8.024s-5.86-2.672-6.805-.61c-1.027 2.247 3.352 3.758 3.352 3.758s-6.454.934-5.282 3.86c1.121 2.789 6.703-.61 6.703-.61s-1.945 4.442.204 5.282c2.789 1.093 3.023-2.856 4.164-4.57.62-.93 1.027-1.997 1.422-3.048.597-1.582.402-4.23 1.421-4.875 1.286-.812 3.485 1.746 4.774 3.149 2.45 2.668 3.058 6.613 5.18 9.547 1.882 2.601 3.992 5.14 6.601 7.008a25.5 25.5 0 0 0 8.938 4.062c2.902.684 6.054.8 8.937.305 2.887-.492 5.688-1.477 8.024-3.149 1.875-1.34 4.472-4.05 4.468-5.281 0-.508-.761-1.758-1.699-1.168m0 0"/><path fill="url(#h)" d="M123.79 82.793c-.84.527-4.821 2.906-6.985 3.371-2.106.453-8.653.45-11.63-.883-5.046-2.261-9.792-11.433-9.343-13.71.207-1.044 4.152-3.536 5.484-3.352 1.965.27 1.364 3.785 2.54 5.383 2.042 2.78 4.726 8.89 7.617 7.007 2.945-1.918-1.422-5.586-1.422-5.586s6.375 2.606 6.297-1.726c-.032-1.79-5.078-1.727-5.078-1.727s4.57-2.015 2.843-4.367c-1.34-1.828-6.601 1.625-6.601 1.625s-.602-5.433-2.64-6.703c-2.075-1.293-7.313.61-7.313.61l3.656-11.782s4.25 4.734 7.008 4.469c3.578-.344 7.82-7.414 7.82-7.414s6.012-.012 5.992-2.54c-.023-3.12-5.078-1.421-5.078-1.421s2.254-4.344.102-5.484c-2.051-1.09-3.961 4.265-3.961 4.265s-2.063-3.633-3.961-2.133c-1.758 1.39 1.32 5.18 1.32 5.18s-1.137 3.063-2.437 3.047c-1.786-.02-2.907-2.512-3.25-4.266-.442-2.273.19-5.066 1.828-6.703 2.941-2.937 5.449-2.328 7.617-4.266 2.77-2.472 6.113-5.851 6.5-9.039.183-1.503-.653-3.207-1.828-4.164-2.012-1.64-5.028-1.41-7.617-1.625-3.141-.261-6.477-.656-9.446.407-2.39.855-4.668 2.468-6.094 4.57-2.043 3.02-1.449 7.93-2.843 10.562-.817 1.547-2.785 2.266-4.469 2.743-1.106.312-2.695.867-3.453 0-.492-.567.305-2.235.305-2.235s6.48-3.375 4.468-5.789c-1.707-2.05-4.773 1.828-4.773 1.828s.535-5.562-2.438-5.383c-2.527.153-1.422 5.485-1.422 5.485s-3.804-2.508-4.875-1.219c-1.933 2.336 3.961 5.281 3.961 5.281s-.984 4.891.407 6.602c1.129 1.39 5.18 1.422 5.18 1.422s-2.446 6.32-3.16 9.562c-.766 3.489-1.005 10.14-1.005 10.14s-4.925-3.12-6.804-1.726c-2.856 2.121-1.422 8.024-1.422 8.024s-5.86-2.672-6.805-.61c-1.027 2.247 3.352 3.758 3.352 3.758s-6.454.934-5.282 3.86c1.121 2.789 6.703-.61 6.703-.61s-1.945 4.438.204 5.281c2.789 1.094 3.023-2.855 4.164-4.57.62-.933 1.027-1.996 1.422-3.047.597-1.582.402-4.23 1.421-4.875 1.286-.812 3.485 1.746 4.774 3.149 2.45 2.668 3.058 6.613 5.18 9.547 1.882 2.601 3.992 5.14 6.601 7.007a25.5 25.5 0 0 0 8.938 4.063c2.902.68 6.054.8 8.937.305 2.887-.496 5.688-1.477 8.024-3.149 1.875-1.344 4.472-4.055 4.468-5.281 0-.508-.761-1.758-1.699-1.168m0 0"/><path fill="url(#i)" d="M107.68 26.195a2.617 2.617 0 0 1-5.235 0c0-1.445 1.172-2.613 2.618-2.613s2.617 1.168 2.617 2.613m0 0"/><path fill="url(#j)" d="M107.68 25.98a2.617 2.617 0 0 1-5.235 0 2.617 2.617 0 0 1 5.235 0m0 0"/><path d="m63.27 89.402-7.262-.425"/><path fill="url(#l)" d="M66.023 52.418c0 17.145-21.335 43.148-31.757 43.148-11.059 0-31.754-26.004-31.754-43.148 0-17.148 14.215-31.047 31.754-31.047S66.023 35.27 66.023 52.418m0 0"/><path fill="url(#n)" d="M66.023 51.61c0 17.148-21.335 43.152-31.757 43.152-11.059 0-31.754-26.004-31.754-43.153 0-17.144 14.215-31.043 31.754-31.043S66.023 34.465 66.023 51.61m0 0"/><path fill="#747474" d="M55.508 50.918c0 .039-1.465.07-3.278.07-1.808 0-3.273-.031-3.273-.07s1.465-.07 3.273-.07c1.813 0 3.278.03 3.278.07m0 0"/><path fill="url(#o)" d="M24.93 52.867c3.629 3.735 7.64 11.469 3.93 15.117-3.59 3.532-10.993-.484-14.551-4.043-3.77-3.77-8.079-11.656-4.286-15.406 3.676-3.637 11.297.621 14.907 4.332m0 0"/><path fill="url(#p)" d="M24.93 52.059c3.629 3.734 7.64 11.468 3.93 15.12-3.59 3.532-10.993-.484-14.551-4.042-3.77-3.77-8.079-11.66-4.286-15.407 3.676-3.636 11.297.622 14.907 4.329m0 0"/><path fill="url(#r)" d="M43.367 52.867c-3.633 3.735-7.644 11.469-3.93 15.117 3.586 3.532 10.989-.484 14.547-4.043 3.77-3.77 8.078-11.656 4.29-15.406-3.68-3.637-11.301.621-14.907 4.332m0 0"/><path fill="url(#s)" d="M43.367 52.059c-3.633 3.734-7.644 11.468-3.93 15.12 3.586 3.532 10.989-.484 14.547-4.042 3.77-3.77 8.078-11.66 4.29-15.407-3.68-3.636-11.301.622-14.907 4.329m0 0"/></g><path fill="url(#t)" d="M70.668 58.21q-.11-.001-.215.005c-.105.006-.144.008-.21.015q-.106.011-.212.028l-.203.035q-.206.041-.398.102a6 6 0 0 0-.383.14q-.187.076-.363.176-.179.094-.344.207a3 3 0 0 0-.32.238 5 5 0 0 0-.563.563 4 4 0 0 0-.238.32q-.112.167-.207.344a3 3 0 0 0-.176.363 6 6 0 0 0-.14.383q-.06.194-.102.398l-.035.203a4 4 0 0 0-.043.422q-.005.105-.004.215v56.043a4 4 0 0 0 .047.637l.035.203q.041.206.101.398.065.195.14.383.077.187.177.364.094.175.207.343.11.164.238.32a5 5 0 0 0 .563.563q.153.125.32.238c.167.113.226.145.344.207q.175.094.363.176.186.078.383.137c.129.043.261.074.398.105l.203.036q.105.016.211.027c.067.004.14.012.211.016s.14.003.215.003h36.922q.11.001.215-.004c.074-.003.144-.011.21-.015q.105-.011.212-.027l.203-.036a4.7 4.7 0 0 0 .78-.242q.189-.082.364-.176.181-.094.344-.207c.163-.113.219-.156.32-.238a5 5 0 0 0 .563-.562 5 5 0 0 0 .238-.32 4.5 4.5 0 0 0 .383-.708q.076-.189.14-.383.06-.192.102-.398c.012-.066.027-.137.035-.203q.017-.105.028-.211.01-.105.015-.211a4 4 0 0 0 .008-.215V77.66L92.11 58.21zm0 0"/><g mask="url(#u)"><g clip-path="url(#v)" transform="translate(-8 -16)"><path fill="url(#w)" d="M99.41 74.43v1.105l.074 17.242a1.89 1.89 0 0 0 1.891 1.883h18.262v-.855h-1l-17.098-17.227-1.277-1.289v-.86zm0 0"/></g></g><path fill="url(#x)" d="M92.258 76.41V58.48l19.414 19.415h-17.93c-.82 0-1.484-.665-1.484-1.485m0 0"/><path fill="url(#y)" d="M70.668 57.566q-.11-.001-.215.004c-.07.004-.144.012-.21.016q-.106.011-.212.027l-.203.035q-.206.042-.398.106-.198.06-.383.137a5 5 0 0 0-.363.175 4 4 0 0 0-.344.207q-.167.114-.32.239a5 5 0 0 0-.563.562q-.128.158-.238.32c-.11.163-.145.227-.207.344a3 3 0 0 0-.176.364 6 6 0 0 0-.14.382q-.06.194-.102.399l-.035.203a4 4 0 0 0-.043.422q-.005.104-.004.215v56.043a4 4 0 0 0 .047.636l.035.203q.041.205.101.399c.043.133.09.258.14.383q.077.188.177.363.094.177.207.344c.113.167.152.219.238.32a5 5 0 0 0 .563.563q.153.127.32.238.166.112.344.207a4 4 0 0 0 .746.316q.193.06.398.102l.203.035q.105.017.211.027c.067.008.14.012.211.016q.104.005.215.004h36.922q.11.001.215-.004.111-.005.21-.016.105-.01.212-.027l.203-.035q.204-.043.402-.102.193-.065.379-.14c.125-.055.246-.11.363-.176a3 3 0 0 0 .344-.207 3.8 3.8 0 0 0 .613-.508 3.8 3.8 0 0 0 .508-.613q.112-.167.207-.344.1-.175.176-.363a4.2 4.2 0 0 0 .242-.781c.012-.067.027-.137.035-.204q.017-.105.028-.21t.015-.212q.007-.104.008-.214v-40.75l-19.64-19.45zm0 0"/><g mask="url(#z)"><g clip-path="url(#A)" transform="translate(-8 -16)"><path fill="url(#B)" d="M99.41 73.785v1.11l.074 17.238a1.89 1.89 0 0 0 1.891 1.883h18.262v-.856h-1l-17.098-17.226-1.277-1.29v-.859zm0 0"/></g></g><path fill="url(#C)" d="M92.258 75.766v-17.93l19.414 19.414h-17.93c-.82 0-1.484-.664-1.484-1.484m0 0"/><g mask="url(#D)"><g clip-path="url(#F)" transform="translate(-8 -16)"><path fill="url(#G)" d="m45.395 107.492-.997 1.52 9.454.328 1.328-1.918zm0 0"/></g></g><path fill="#77767b" d="M34.238 84.258v8.039h36.184a4 4 0 0 0 2.074-.57 4.01 4.01 0 0 0 1.945-3.45v-4.02zm0 0"/><path fill="url(#H)" d="M34.238 83.426v8.039h36.184a4.01 4.01 0 0 0 4.02-4.02v-4.02zm0 0"/><path fill="#a51d2d" d="M21.375 66.566c-7.105 0-12.863 5.762-12.863 12.868 0 7.105 5.758 12.863 12.863 12.863h12.863V79.434c0-7.106-5.758-12.868-12.863-12.868m0 6.434a6.432 6.432 0 1 1 0 12.863 6.433 6.433 0 0 1-6.434-6.43A6.434 6.434 0 0 1 21.375 73m0 0"/><g mask="url(#I)"><g clip-path="url(#J)" transform="translate(-8 -16)"><path d="M51.648 99.426H50.29l-6.039 8.87h1.367zm0 0"/></g></g><path fill="#77767b" d="M42.434 99.754 39.105 97.5l-3.328-2.258 2.258-3.328 5.707-8.422 12.336-18.199a4.014 4.014 0 0 1 5.586-1.074l3.328 2.258-2.258 3.328-12.336 18.199-5.707 8.422zm0 0"/><path fill="url(#K)" d="m41.809 99.332-3.329-2.258-3.328-2.254 2.258-3.328 5.707-8.426 12.336-18.199a4.014 4.014 0 0 1 5.586-1.07l3.328 2.254-2.258 3.328-12.336 18.2-5.71 8.425zm0 0"/><path fill="#ed333b" d="M21.375 65.734c-7.105 0-12.863 5.762-12.863 12.868 0 7.105 5.758 12.863 12.863 12.863h12.863V78.602c0-7.106-5.758-12.868-12.863-12.868m0 6.434a6.432 6.432 0 1 1 0 12.863 6.433 6.433 0 0 1-6.434-6.43 6.434 6.434 0 0 1 6.434-6.433m0 0"/><path fill="#a51d2d" d="M50.004 119.773c-3.996 5.895-12.02 7.438-17.918 3.438-5.895-3.996-7.438-12.016-3.438-17.914l7.235-10.68 5.187 3.516 1.934 1.312 3.559 2.41c5.898 3.997 7.437 12.02 3.44 17.918m-5.34-3.62a6.452 6.452 0 0 0-10.68-7.238 6.456 6.456 0 0 0 1.723 8.96 6.45 6.45 0 0 0 8.957-1.723m0 0"/><path fill="#ed333b" d="M50.004 118.895c-3.996 5.894-12.02 7.437-17.918 3.437-5.895-3.996-7.438-12.016-3.438-17.914l7.235-10.68 5.187 3.516 1.934 1.312 3.559 2.41c5.898 3.997 7.437 12.02 3.44 17.919m-5.34-3.622a6.452 6.452 0 0 0-10.68-7.238 6.456 6.456 0 0 0 1.723 8.961 6.45 6.45 0 0 0 8.957-1.723m0 0"/><path fill="#deddda" d="M47.004 87.664c0 1.086-.895 1.969-1.996 1.969-1.102 0-1.996-.883-1.996-1.969 0-1.09.894-1.973 1.996-1.973s1.996.883 1.996 1.973m0 0"/><path fill="#f6f5f4" d="M47.004 87.469c0 1.086-.895 1.969-1.996 1.969-1.102 0-1.996-.883-1.996-1.97 0-1.09.894-1.972 1.996-1.972s1.996.883 1.996 1.973m0 0"/><path fill="url(#L)" d="M47.004 87.227c0 1.09-.895 1.968-1.996 1.968-1.102 0-1.996-.879-1.996-1.968 0-1.09.894-1.97 1.996-1.97s1.996.88 1.996 1.97m0 0"/></svg>